<svg xmlns="http://www.w3.org/2000/svg" width="24" height="24" viewBox="0 0 24 24" fill="none" class="injected-svg" data-src="/v2/static/icons/apple-store.svg" xmlns:xlink="http://www.w3.org/1999/xlink">
<path fill-rule="evenodd" clip-rule="evenodd" d="M16.7746 0C16.9291 1.43441 16.3724 2.84791 15.5586 3.88688C14.7095 4.9097 13.351 5.69201 12.0279 5.59125C11.8548 4.21103 12.5251 2.74335 13.2756 1.84791C14.1238 0.831749 15.5968 0.0532319 16.7746 0ZM20.9879 8.02479C20.8412 8.11476 18.4102 9.60572 18.4368 12.6464C18.4673 16.3182 21.5625 17.5321 21.6004 17.5454C21.5819 17.6309 21.1157 19.2972 19.9548 20.9891C18.9853 22.4786 17.9696 23.9348 16.3564 23.9614C15.5894 23.9796 15.0716 23.753 14.5319 23.5168C13.969 23.2705 13.3824 23.0138 12.4648 23.0138C11.4919 23.0138 10.8793 23.2787 10.2885 23.5342C9.77768 23.7551 9.28315 23.969 8.58615 23.9985C7.04968 24.0565 5.87581 22.4083 4.87123 20.9321C2.86299 17.918 1.29969 12.4382 3.39581 8.70927C4.41149 6.88046 6.2634 5.70276 8.24296 5.67139C9.11467 5.65307 9.95074 5.99828 10.6837 6.3009C11.2442 6.53232 11.7443 6.73883 12.154 6.73883C12.5138 6.73883 12.9999 6.54057 13.5665 6.3095C14.4594 5.94534 15.5522 5.49968 16.6654 5.62006C17.4267 5.64287 19.5931 5.92898 20.9908 8.02299L20.9879 8.02479Z" fill="#151515"></path>
</svg>