<svg xmlns="http://www.w3.org/2000/svg" xmlns:xlink="http://www.w3.org/1999/xlink" width="144" height="124" viewBox="0 0 144 124">
    <defs>
        <path id="b" d="M0 4.188h61.713v84.339H0z"/>
        <filter id="a" width="124.3%" height="117.8%" x="-12.2%" y="-8.9%" filterUnits="objectBoundingBox">
            <feOffset in="SourceAlpha" result="shadowOffsetOuter1"/>
            <feGaussianBlur in="shadowOffsetOuter1" result="shadowBlurOuter1" stdDeviation="2.5"/>
            <feColorMatrix in="shadowBlurOuter1" values="0 0 0 0 0.701876063 0 0 0 0 0.701876063 0 0 0 0 0.701876063 0 0 0 0.129998907 0"/>
        </filter>
        <path id="c" d="M.077.104h20.399v13.934H.077z"/>
        <path id="e" d="M.077.06h20.399v13.934H.077z"/>
        <path id="h" d="M8.64 16.663l78.828-.27a2.646 2.646 0 0 1 2.655 2.655l-.197 56.502a2.646 2.646 0 0 1-2.637 2.637l-78.828.27a2.646 2.646 0 0 1-2.655-2.655l.197-56.503a2.646 2.646 0 0 1 2.637-2.636z"/>
        <filter id="g" width="126.1%" height="135.4%" x="-13%" y="-16.1%" filterUnits="objectBoundingBox">
            <feOffset dy="1" in="SourceAlpha" result="shadowOffsetOuter1"/>
            <feGaussianBlur in="shadowOffsetOuter1" result="shadowBlurOuter1" stdDeviation="3.5"/>
            <feColorMatrix in="shadowBlurOuter1" values="0 0 0 0 0.436226223 0 0 0 0 0.436226223 0 0 0 0 0.436226223 0 0 0 0.20503715 0"/>
        </filter>
        <linearGradient id="i" x1=".006%" x2="100.006%" y1="50.002%" y2="50.002%">
            <stop offset="0%" stop-color="gray" stop-opacity=".25"/>
            <stop offset="54%" stop-color="gray" stop-opacity=".12"/>
            <stop offset="100%" stop-color="gray" stop-opacity=".1"/>
        </linearGradient>
        <linearGradient id="j" x1="50%" x2="50%" y1="100%" y2=".001%">
            <stop offset="0%" stop-color="#B3B3B3" stop-opacity=".25"/>
            <stop offset="54%" stop-color="#B3B3B3" stop-opacity=".1"/>
            <stop offset="100%" stop-color="#B3B3B3" stop-opacity=".05"/>
        </linearGradient>
    </defs>
    <g fill="none" fill-rule="evenodd">
        <path fill="#E8E8E8" d="M9.85 54.607c13.308-15.722 28.67-2.786 54.823-16.404C90.827 24.584 84.111 16.346 99.92 10.827 115.727 5.308 144 14.28 144 46.924c0 32.644-21.414 59.076-48.069 70.083-26.654 11.008-67.778 7.876-83.583-7.086C-3.458 94.959-3.458 70.329 9.85 54.607z" opacity=".582"/>
        <g transform="translate(18 7)">
            <use fill="#000" filter="url(#a)" xlink:href="#b"/>
            <use fill="#FFF" xlink:href="#b"/>
            <rect width="21.132" height="1" x="4.862" y="7.615" fill="#E8E8E8" fill-rule="nonzero" rx=".378"/>
            <rect width="21.132" height="1" x="4.862" y="10.661" fill="#E8E8E8" fill-rule="nonzero" rx=".378"/>
            <path fill="#E0E0E0" fill-rule="nonzero" d="M29.173 7.615h21.132v1H29.173zM32.539 26.844h21.132v1H32.539zM33.1 28.747h21.132v1H33.1zM34.035 30.651h21.132v1H34.035zM32.539 56.924h21.132v1H32.539zM33.1 58.828h21.132v1H33.1zM34.035 60.541h21.132v1H34.035z"/>
            <rect width="22.067" height="22.275" x="5.049" y="20.561" fill="#F7F7F7" fill-rule="nonzero" rx="1.89"/>
            <rect width="20.571" height="14.088" x="5.984" y="21.513" fill="#FFF" fill-rule="nonzero" rx=".945"/>
            <g transform="translate(31.417 30.651)">
                <mask id="d" fill="#fff">
                    <use xlink:href="#c"/>
                </mask>
                <g fill="#6C63FF" fill-rule="nonzero" mask="url(#d)" opacity=".4">
                    <g transform="translate(-27.806 -8.194)">
                        <path d="M.759 13.026l5.137-8.06L8.05 8.493l4.639-4.868 3.976 4.868 3.479-7.218L29.09 15.71.096 14.703z"/>
                        <ellipse cx="4.736" cy="1.609" rx="1.491" ry="1.511"/>
                    </g>
                </g>
            </g>
            <rect width="22.067" height="22.275" x="5.049" y="50.451" fill="#F7F7F7" fill-rule="nonzero" rx="1.89"/>
            <rect width="20.571" height="14.088" x="5.984" y="51.403" fill="#FFF" fill-rule="nonzero" rx=".945"/>
            <g transform="translate(31.417 60.731)">
                <mask id="f" fill="#fff">
                    <use xlink:href="#e"/>
                </mask>
                <g fill="#BDBDBD" fill-rule="nonzero" mask="url(#f)" opacity=".4">
                    <g transform="translate(-27.806 -8.194)">
                        <path d="M.759 12.983l5.137-8.06L8.05 8.45l4.639-4.869 3.976 4.869 3.479-7.22 8.946 14.438L.096 14.662z"/>
                        <ellipse cx="4.736" cy="1.567" rx="1.491" ry="1.511"/>
                    </g>
                </g>
            </g>
            <g transform="rotate(-78.76 47.965 47.425)">
                <use fill="#000" filter="url(#g)" xlink:href="#h"/>
                <use fill="#FFF" xlink:href="#h"/>
            </g>
            <path fill="#E8E8E8" fill-rule="nonzero" d="M29.728 4.784l42.325 8.565a.336.336 0 0 1 .264.394v.003a.335.335 0 0 1-.397.265L29.595 5.446a.336.336 0 0 1-.263-.394v-.004a.335.335 0 0 1 .396-.264zM17.498 67.453l42.325 8.564a.336.336 0 0 1 .263.395v.003a.335.335 0 0 1-.396.265l-42.325-8.565a.336.336 0 0 1-.264-.394v-.004a.335.335 0 0 1 .397-.264zM16.752 71.264l32.557 6.588a.336.336 0 0 1 .263.394v.004a.335.335 0 0 1-.397.265L16.62 71.926a.336.336 0 0 1-.263-.393v-.004a.335.335 0 0 1 .396-.265zM16.008 75.079l11.716 2.37c.18.037.298.213.263.394l-.001.004a.335.335 0 0 1-.396.264l-11.715-2.37a.336.336 0 0 1-.263-.394v-.004a.335.335 0 0 1 .396-.264zM28.983 8.598l20.833 4.215a.336.336 0 0 1 .263.394v.004a.335.335 0 0 1-.397.265L28.85 9.26a.336.336 0 0 1-.263-.394l.001-.004a.335.335 0 0 1 .396-.264zM28.24 12.41l38.091 7.708a.336.336 0 0 1 .264.394v.004a.335.335 0 0 1-.397.265l-38.09-7.709a.336.336 0 0 1-.264-.394v-.003a.335.335 0 0 1 .396-.265zM27.495 16.224l8.785 1.778c.181.036.298.212.263.393v.004a.335.335 0 0 1-.396.265l-8.785-1.778a.336.336 0 0 1-.263-.393v-.004a.335.335 0 0 1 .396-.265zM26.752 20.037l42.325 8.565a.336.336 0 0 1 .264.394L69.34 29a.335.335 0 0 1-.396.264L26.62 20.7a.336.336 0 0 1-.264-.395l.001-.003a.335.335 0 0 1 .396-.265z"/>
            <path fill="url(#i)" fill-rule="nonzero" d="M10.156-4.466l22.917-.055-.095 39.478-22.917.055z" opacity=".5" transform="rotate(-78.76 56.39 17.516)"/>
            <path fill="#FFF" fill-rule="nonzero" d="M30.427 36.292l38.098 7.71-4.303 22.049-38.099-7.71z"/>
            <path fill="#E8E8E8" fill-rule="nonzero" d="M26.008 23.852l42.325 8.564a.336.336 0 0 1 .263.395v.003a.335.335 0 0 1-.396.265l-42.325-8.565a.336.336 0 0 1-.264-.394v-.004a.335.335 0 0 1 .397-.264z"/>
            <path fill="#4A90E2" fill-rule="nonzero" d="M34.767 40.272l2.87.58c.508.104.839.598.74 1.108L35.6 56.186a.945.945 0 0 1-1.115.746l-2.87-.581a.945.945 0 0 1-.74-1.107l2.777-14.227a.945.945 0 0 1 1.115-.745z"/>
            <path fill="#7BBD62" fill-rule="nonzero" d="M42.197 47.29l2.87.581c.509.103.84.598.74 1.108L44.066 57.9a.945.945 0 0 1-1.115.745l-2.87-.58a.945.945 0 0 1-.74-1.108l1.741-8.921a.945.945 0 0 1 1.115-.745z"/>
            <path fill="#C4C4C4" fill-rule="nonzero" d="M49.694 53.978l2.87.58c.509.104.84.598.74 1.108l-.77 3.947a.945.945 0 0 1-1.115.745l-2.87-.58a.945.945 0 0 1-.74-1.108l.77-3.947a.945.945 0 0 1 1.115-.745z"/>
            <path fill="#F5DA23" fill-rule="nonzero" d="M59.326 49.723l2.87.58c.508.103.839.598.74 1.108L61 61.327a.945.945 0 0 1-1.115.745l-2.87-.58a.945.945 0 0 1-.74-1.108l1.936-9.916a.945.945 0 0 1 1.115-.745z"/>
            <path fill="url(#j)" fill-rule="nonzero" d="M71.79 62.212a15.618 15.618 0 0 1-22.389-.45c-6.06-6.43-5.864-16.653.44-22.835a15.618 15.618 0 0 1 22.39.449c2.91 3.087 4.5 7.228 4.417 11.51-.083 4.283-1.83 8.357-4.857 11.326z"/>
            <path fill="#D73F30" fill-rule="nonzero" d="M62.854 27.035c-5.965-.046-11.695 2.365-15.894 6.686-8.379 8.615-8.521 22.643-.325 31.44 7.435 7.981 19.428 9.33 28.39 3.195l13.34 14.154a3.805 3.805 0 0 0 5.433.107 3.958 3.958 0 0 0 .11-5.541L80.564 62.923c6.333-8.85 5.524-21.059-1.919-28.959-4.134-4.385-9.828-6.883-15.792-6.93zM73.66 61.248a15.618 15.618 0 0 1-22.39-.45c-6.06-6.429-5.863-16.652.44-22.834a15.618 15.618 0 0 1 22.39.448c2.912 3.088 4.5 7.229 4.418 11.511-.082 4.283-1.83 8.357-4.858 11.325z"/>
            <path fill="#D73F30" fill-rule="nonzero" d="M50.96 44.93c-1.869 0-1.872 2.856 0 2.856 1.87 0 1.87-2.856 0-2.856zM63.282 36.176c-4.807-.112-9.182 2.377-11.508 6.134-.76 1.225 1.396 2.309 2.15 1.089 1.927-3.11 5.586-5.086 9.545-4.983 4.148.107 7.923 2.556 9.921 5.954.758 1.29 2.745.118 1.995-1.164-2.435-4.127-7.136-6.92-12.103-7.03z"/>
        </g>
    </g>
</svg>
