<svg width="135" height="64" fill="none" xmlns="http://www.w3.org/2000/svg">
  <path
    d="M12.51 4.848v2.93L0 12.639V9.825l9.365-3.502L0 2.822V0l12.51 4.848zM12.51 30.28v2.927L0 38.066v-2.822l9.365-3.502L0 28.242v-2.824l12.51 4.861zM12.51 55.714v2.931L0 63.501v-2.833l9.365-3.5L0 53.668v-2.822l12.51 4.87zM43.018 4.848v2.93l-12.509 4.86V9.825l9.365-3.502-9.365-3.502V0l12.51 4.848zM43.018 30.28v2.927L30.51 38.066v-2.822l9.365-3.502-9.365-3.5v-2.824l12.51 4.861zM43.018 55.714v2.931L30.51 63.501v-2.833l9.365-3.5-9.365-3.501v-2.822l12.51 4.87zM73.527 4.859v2.93l-12.509 4.859V9.837l9.366-3.502-9.366-3.513V0l12.51 4.859zM73.527 30.29v2.928l-12.509 4.859v-2.822l9.366-3.502-9.366-3.497v-2.824l12.51 4.858zM73.527 55.726v2.93l-12.509 4.856V60.68l9.366-3.499-9.366-3.49v-2.823l12.51 4.859zM104.036 4.859v2.93l-12.509 4.859V9.837l9.366-3.502-9.366-3.513V0l12.509 4.859zM104.036 30.29v2.928l-12.509 4.859v-2.822l9.366-3.502-9.366-3.497v-2.824l12.509 4.858zM104.036 55.726v2.93l-12.509 4.856V60.68l9.366-3.499-9.366-3.49v-2.823l12.509 4.859zM134.545 4.859v2.93l-12.509 4.859V9.837l9.366-3.502-9.366-3.513V0l12.509 4.859zM134.545 30.29v2.928l-12.509 4.859v-2.822l9.366-3.502-9.366-3.497v-2.824l12.509 4.858zM134.545 55.726v2.93l-12.509 4.856V60.68l9.366-3.499-9.366-3.49v-2.823l12.509 4.859z" />
</svg>