<svg xmlns="http://www.w3.org/2000/svg" xmlns:xlink="http://www.w3.org/1999/xlink" width="147" height="115" viewBox="0 0 147 115">
    <defs>
        <path id="a" d="M0 94.856h118.112V0H0z"/>
    </defs>
    <g fill="none" fill-rule="evenodd">
        <path fill="#E8E8E8" d="M12.85 45.607c13.308-15.722 28.67-2.786 54.823-16.404C93.827 15.584 87.111 7.346 102.92 1.827 118.727-3.692 147 5.28 147 37.924c0 32.644-21.414 59.076-48.069 70.083-26.654 11.008-67.778 7.876-83.583-7.086C-.458 85.959-.458 61.329 12.85 45.607z" opacity=".582"/>
        <g transform="translate(0 1)">
            <path fill="#FFFFFE" d="M105.242 69.772H25.806a4.152 4.152 0 0 1-4.153-4.152V4.153A4.153 4.153 0 0 1 25.806 0h79.436a4.153 4.153 0 0 1 4.153 4.153V65.62a4.152 4.152 0 0 1-4.153 4.152"/>
            <path fill="#FFF" d="M104.949 68.854h-78.85a3.291 3.291 0 0 1-3.291-3.291V4.209a3.291 3.291 0 0 1 3.29-3.291h78.85a3.291 3.291 0 0 1 3.292 3.291v61.354a3.291 3.291 0 0 1-3.291 3.291"/>
            <path fill="#E8E8E8" d="M102.518 62.86H28.53a2.028 2.028 0 0 1-2.028-2.028V6.142c0-1.119.908-2.027 2.028-2.027h73.988c1.12 0 2.028.908 2.028 2.028v54.69c0 1.119-.908 2.027-2.028 2.027"/>
            <path fill="#D73F30" d="M65.11 2.642c0 .454-.33.721-.735.721-.406 0-.735-.267-.735-.721 0-.455.33-.726.735-.726.406 0 .735.271.735.726"/>
            <mask id="b" fill="#fff">
                <use xlink:href="#a"/>
            </mask>
            <path fill="#FFF" d="M28.131 61.318h74.524V12.114H28.131z" mask="url(#b)"/>
            <path fill="#D73F30" d="M98.615 5.594H32.172a4.04 4.04 0 0 0-4.041 4.041v2.48h74.524v-2.48a4.04 4.04 0 0 0-4.04-4.04" mask="url(#b)"/>
            <path fill="#FFF" d="M34.091 8.851c0 .477-.322.864-.718.864-.398 0-.719-.387-.719-.864 0-.476.321-.863.719-.863.396 0 .718.387.718.863M36.514 8.851c0 .477-.321.864-.718.864-.397 0-.72-.387-.72-.864 0-.476.323-.863.72-.863.397 0 .718.387.718.863M38.937 8.851c0 .477-.321.864-.718.864-.398 0-.719-.387-.719-.864 0-.476.321-.863.719-.863.397 0 .718.387.718.863" mask="url(#b)"/>
            <path fill="#E8E8E8" d="M73.828 51.91h24.404V40.129H73.828z" mask="url(#b)"/>
            <path fill="#F5DA23" d="M56.743 20.528c-.742.71-1.272 1.56-1.804 2.444-.146.017-.3.044-.455.05-1.25.039-2.5.127-3.75.009-.27-.026-.546-.021-.811-.245-.009-.192-.027-.416-.028-.64-.006-1.228-.002-2.456-.015-3.684-.005-.477-.051-.954-.07-1.43-.011-.272-.03-.548.13-.793.663-.117 5.879-.092 6.59.032.145.531.264 2.842.213 4.257" mask="url(#b)"/>
            <path fill="#FFF" d="M56.775 22.723l-1.157.176c.096-.456.38-.91 1.016-1.655.122 0 .14.087.14.178v1.3" mask="url(#b)"/>
            <path fill="#F5DA23" d="M56.775 22.723l-.001-1.3c0-.092-.018-.178-.14-.179-.636.744-.92 1.2-1.016 1.655l1.157-.176m-.033-2.195c.051-1.415-.067-3.726-.212-4.257-.711-.124-5.927-.15-6.59-.032-.16.245-.142.521-.13.793.019.476.065.953.07 1.43.013 1.228.008 2.456.015 3.684 0 .224.02.448.028.64.266.224.541.219.811.245 1.25.118 2.5.03 3.75-.01.155-.005.309-.032.455-.049.532-.885 1.062-1.733 1.803-2.444m-7.317-4.656c.247-.032.447-.083.646-.08 2.047.022 4.094.053 6.142.082.09.002.182.008.272.02.362.044.47.138.498.52.078 1.044.15 2.088.203 3.133.044.885.06 1.773.088 2.66.004.16.019.32.009.477-.02.327-.12.432-.45.495-2 .379-4.02.446-6.049.348-.291-.013-.584-.087-.868-.162-.293-.076-.454-.288-.483-.592-.006-.068-.013-.137-.014-.205-.016-2.093-.031-4.186-.043-6.279-.001-.111.025-.223.049-.417" mask="url(#b)"/>
            <path fill="#E8E8E8" d="M49.983 25.08c2.195-.005 4.372-.038 6.535.07.161.532.283 2.833.232 4.29-.713.678-1.26 1.541-1.815 2.462-1.452.104-2.922.187-4.397.022-.203-.022-.41-.033-.615-.24-.007-.174-.021-.398-.022-.623-.006-1.228-.001-2.456-.015-3.683-.005-.477-.05-.954-.07-1.43-.012-.273-.024-.548.167-.869" mask="url(#b)"/>
            <path fill="#FFF" d="M55.619 31.77c.157-.493.558-1.105 1.066-1.632.15.114.091.283.105.424.016.179.016.359.02.539.003.154 0 .308 0 .492-.393.14-.78.195-1.191.177" mask="url(#b)"/>
            <path fill="#E8E8E8" d="M55.619 31.77c.411.018.798-.036 1.191-.177 0-.184.003-.338 0-.492-.004-.18-.004-.36-.02-.54-.014-.14.045-.309-.105-.423-.508.527-.909 1.139-1.066 1.632m-5.636-6.69c-.191.32-.18.595-.167.867.02.477.065.954.07 1.431.013 1.227.01 2.455.015 3.683.001.225.015.449.022.623.204.207.412.218.615.24 1.475.165 2.945.082 4.396-.022.556-.92 1.103-1.783 1.816-2.463.051-1.456-.07-3.757-.232-4.29-2.163-.107-4.34-.074-6.535-.07m-.529-.244c.252-.126.524-.14.796-.136 2.002.027 4.004.057 6.006.088.09.001.182.005.272.018.289.041.404.149.453.424.012.067.016.135.02.204.068 1.248.14 2.498.203 3.747.034.658.053 1.319.077 1.978.006.159.018.319.006.477-.02.284-.124.406-.412.46-.268.05-.541.072-.812.11-.472.066-.943.164-1.418.195-1.34.086-2.683.096-4.025.033a1.324 1.324 0 0 1-.204-.02c-.839-.172-.996-.314-.997-1.168-.003-1.865-.03-3.73-.042-5.597-.001-.269-.041-.545.077-.813M76.693 51.91h-2.865v4.702a1.432 1.432 0 1 0 2.865 0V53.48a1.432 1.432 0 1 0 2.863 0v-1.57h-2.863z" mask="url(#b)"/>
            <path fill="#7BBD62" d="M40.79 25.079c2.237-.002 4.435-.04 6.672.078l.177 4.224c-.753.733-1.314 1.586-1.85 2.5-.185.02-.386.05-.588.06-1.205.068-2.41.132-3.614.004-.09-.01-.181-.015-.271-.028-.518-.071-.58-.13-.59-.637-.018-.979-.027-1.957-.039-2.937-.009-.772-.017-1.546-.024-2.32-.003-.291-.034-.588.127-.944" mask="url(#b)"/>
            <path fill="#FFF" d="M47.606 30.117c.04.528.056.995.032 1.475-.387.143-.76.18-1.2.192.04-.132.048-.237.099-.315.273-.411.553-.818.84-1.22.04-.057.13-.077.23-.132" mask="url(#b)"/>
            <path fill="#7BBD62" d="M47.606 30.117c-.099.055-.19.075-.23.131-.286.403-.566.81-.839 1.221-.05.078-.058.183-.098.315.44-.011.812-.05 1.2-.192.023-.48.008-.947-.033-1.475m-6.816-5.039c-.16.358-.13.654-.127.946l.024 2.32c.012.978.02 1.957.039 2.935.01.507.072.567.59.639.09.012.18.018.271.027 1.205.128 2.41.064 3.614-.004.202-.01.403-.04.589-.06.535-.913 1.096-1.767 1.849-2.5l-.177-4.224c-2.237-.118-4.435-.08-6.672-.079m-.528-.297c.347-.033.617-.083.887-.08 1.956.022 3.912.057 5.867.082.843.01.78.225.82.781.093 1.27.229 2.537.22 3.814-.005.636.04 1.273.063 1.909.004.091.016.182.011.272-.016.356-.124.496-.48.546-.832.118-1.665.27-2.502.311-1.157.056-2.32.034-3.48.02-.312-.005-.628-.083-.933-.166-.292-.078-.452-.299-.46-.606-.013-.409-.015-.819-.018-1.228-.014-1.638-.03-3.275-.039-4.913-.001-.223.026-.447.044-.742" mask="url(#b)"/>
            <path fill="#E8E8E8" d="M46.177 38.935l-11.95.025a.967.967 0 0 1-.969-.964v-.288c0-.533.43-.966.964-.968l11.95-.024a.965.965 0 0 1 .968.964l.001.288c.001.533-.43.966-.964.967" mask="url(#b)"/>
            <path fill="#D73F30" d="M41.05 58.761l-6.824.015a.965.965 0 0 1-.967-.964v-.288c-.002-.533.43-.967.963-.967l6.823-.015a.966.966 0 0 1 .968.964l.001.288c.001.533-.43.967-.964.967" mask="url(#b)"/>
            <path fill="#E8E8E8" d="M61.555 42.808l-27.329.056a.966.966 0 0 1-.967-.964v-.288c-.002-.533.43-.967.963-.968l27.328-.056c.534-.001.967.43.968.964v.288c.001.533-.43.966-.963.968M66.323 48.431l-32.731.068a.333.333 0 0 1-.334-.333v-.142c0-.184.148-.333.332-.333l32.73-.069c.185 0 .334.149.334.333v.142a.333.333 0 0 1-.331.334M66.322 46.655l-32.73.068a.333.333 0 0 1-.334-.333v-.142c0-.184.148-.333.332-.334l32.73-.068c.184 0 .334.149.334.333v.142a.333.333 0 0 1-.332.334M66.324 50.208l-32.731.067a.333.333 0 0 1-.334-.332V49.8c0-.184.149-.333.333-.333l32.73-.068c.184 0 .333.148.334.332v.143a.333.333 0 0 1-.332.334M66.325 51.984l-32.73.067a.333.333 0 0 1-.334-.332v-.143c0-.184.148-.333.332-.333l32.73-.068c.184 0 .334.148.334.332v.143a.333.333 0 0 1-.332.334M58.694 53.767l-25.098.052a.333.333 0 0 1-.334-.333v-.142c0-.184.148-.334.332-.334l25.099-.052c.184 0 .333.149.333.333v.142a.333.333 0 0 1-.332.334" mask="url(#b)"/>
            <path fill="#C4C4C4" d="M78.78 94.793l-7.454.014-1.825-9.16 11.065-.022z" mask="url(#b)"/>
            <path fill="#F73D2B" d="M71.403 85.639c.002.781-.148 2.094.374 2.113.522.02.306-1.245.9-1.211.38.021-.176 4.162 1.259 4.262.986.069.806-2.03.907-3.344.07-.89 1.21-.716 1.22-.127.01.658-.032 1.098 0 1.847.053 1.25 1.98.918 1.912-.752-.069-1.671-.004-2.802-.004-2.802l-6.568.014" mask="url(#b)"/>
            <path fill="#031628" d="M69.544 91.982a1.84 1.84 0 0 1-.423-.045c-.529-.122-.9-.41-1.103-.856-.73-1.606 1.194-4.615 1.27-4.75l.1.542c-.018.032-1.691 2.618-1.034 4.062.156.343.434.556.85.651.115.026.235.039.36.038 2.583-.004 7-4.992 7.048-5.05.18-.225.518-.013.397.177-.202.24-4.688 5.225-7.465 5.231" mask="url(#b)"/>
            <path fill="#4A90E2" d="M44.23 17.69c-.39 1.372-.707 2.723-1.213 4.045-.904.42-1.68 1.05-2.434 1.691-.69-.03-1.903-.38-3.596-1.034-.4-.155-.802-.307-1.15-.619.033-.162.049-.319.096-.464.399-1.209.81-2.414 1.202-3.624.162-.497.284-1.007.433-1.508.078-.258.143-.53.415-.705.097.02.21.03.316.063 1.923.627 3.836 1.286 5.727 2.005.06.022.106.077.204.15" mask="url(#b)"/>
            <path fill="#FFF" d="M42.379 23.789c-.423.037-.799-.116-1.268-.182.486-.548 1.037-.88 1.605-1.288.096.313-.043.532-.1.754-.063.237-.154.467-.237.716" mask="url(#b)"/>
            <path fill="#4A90E2" d="M42.379 23.789c.083-.25.174-.479.236-.716.058-.222.197-.441.101-.754-.568.408-1.12.74-1.605 1.288.469.066.845.219 1.268.182m1.852-6.098c-.099-.074-.146-.129-.205-.15a125.972 125.972 0 0 0-5.727-2.006c-.106-.034-.219-.044-.316-.063-.272.176-.337.447-.415.705-.149.501-.271 1.01-.433 1.508-.392 1.21-.803 2.415-1.201 3.624-.048.145-.064.302-.097.464.348.312.75.464 1.15.619 1.693.654 2.907 1.004 3.596 1.034.754-.642 1.53-1.27 2.434-1.69.505-1.323.822-2.674 1.214-4.045m-6.67-2.712c.3.075.545.119.777.198 1.829.629 3.658 1.257 5.482 1.9.858.302.846.347.634 1.244-.417 1.774-1.007 3.498-1.493 5.251-.167.604-.27.798-1.053.66-1.35-.235-2.663-.589-3.963-1.006-.627-.2-1.236-.458-1.853-.691a.871.871 0 0 1-.183-.092c-.469-.32-.7-.47-.466-1.182.626-1.902 1.247-3.804 1.874-5.706.056-.17.139-.33.244-.576" mask="url(#b)"/>
            <path fill="#F1B29C" d="M16.355 26.158c2.194-1.928 9.259 3.94 11.443 5.155 0 0 6.235-4.994 8.685-7.675l1.862 1.366s-7.042 8.71-9.481 9.2c-6.587 1.324-17.473-3.685-12.509-8.046" mask="url(#b)"/>
            <path fill="#F1B29C" d="M35.837 24.312s.982-.886.192-1.563c-.563-.484-1.194-1.03-.722-1.072.001-.002 1.27.395 1.27.395.028-.043.503-.175 1.216-1.143.785-1.066.889-1.998 1.547-1.995 1.054.007 1.104.82 1.104 2.31 0 0 .036.044-.427 1.192-.463 1.148-1.672 2.568-1.672 2.568l-2.508-.692z" mask="url(#b)"/>
            <path fill="#F5DA23" d="M13.029 25.402h4.326s1.942.293 3.162 2.196c1.123 1.752 2.026 5.695.236 7.988 0 0-1.706 3.74-1.603 4.855l-8.476.3-2.067-12.524a1.996 1.996 0 0 1 1.595-2.28l2.827-.535z" mask="url(#b)"/>
            <path fill="#F1B29C" d="M12.174 26.071c.43.43 1.37 3.307-5.072 12.341 0 0 5.418 5.793 6.553 8.829l-1.571 1.693s-5.324-5.93-7.586-9.525c-2.261-3.596 5.159-15.854 7.676-13.338" mask="url(#b)"/>
            <path fill="#282528" d="M13.43 9.99c-.482.322-.915.714-1.347 1.1-.211.19-.535.41-.983.532-.723.196-3.77-.327-3.65 3.243.097 2.884-.294 5.758-1.387 8.428l-.452 1.104c-1.844 4.514 1.202 4.444 2.734 7.28 1.531 2.835-1.583 7.997 7.96 8.358 4.96.188 10.06-2.343 7.848-7.346 0 0 .062-2.748 1.806-3.807 1.744-1.058 3.003-6.227-1.555-7.275s-1.28-2.757-1.238-4.95c.09-4.737-2.76-11.327-9.736-6.667" mask="url(#b)"/>
            <path fill="#F1B29C" d="M2.473 85.585L0 92.137l7.294 2.719a1.526 1.526 0 0 0-.798-2.1l-2.787-1.114 1.73-4.945-2.966-1.112z" mask="url(#b)"/>
            <path fill="#282528" d="M.581 90.595l3.128 1.047 3.018 1.205a1.316 1.316 0 0 1 .567 2.01L0 92.136l.581-1.542z" mask="url(#b)"/>
            <path fill="#FFC3BF" d="M17.5 87.764l.104 7.002 7.782-.145a1.525 1.525 0 0 0-1.512-1.66l-3.002-.015-.204-5.235-3.168.053z" mask="url(#b)"/>
            <path fill="#282528" d="M17.579 93.12l3.293-.174 3.25.014a1.316 1.316 0 0 1 1.264 1.661l-7.783.146-.024-1.648z" mask="url(#b)"/>
            <path fill="#4A90E2" d="M19.148 40.378s1.78 4.015 3.022 11.055c.39 2.21.803 8.02 1.049 11.903a47.74 47.74 0 0 1-.095 7.288l-1.742 19.438-4.22.181-.317-22.31-4.797-27.256 7.1-.299z" mask="url(#b)"/>
            <path fill="#4A90E2" d="M10.659 40.677s-3.357 5.016-3.023 13.335l-.023 2.842A69.535 69.535 0 0 1 4.27 77.61L.673 88.779l4.115 1.226 8.347-21.033 2.931-15.718.204-12.767-5.611.19z" mask="url(#b)"/>
            <path fill="#4086D7" d="M15.138 58.232l-.827-6.351-3.291-.809 2.573 4.467-.458 13.433z" mask="url(#b)"/>
            <path fill="#F73D2B" d="M72.776 27.064l.024 13.41h-2.053c-.871.003-1.999-.993-2.001-1.876l-.044-21.868c-.002-.893 1.002-1.762 1.627-1.749h5.312v12.053l-2.865.03z" mask="url(#b)"/>
            <path fill="#E8E8E8" d="M94.387 14.84v.313c.866 0 1.571.702 1.573 1.565l.045 21.823a1.573 1.573 0 0 1-1.57 1.571l-23.943.05a1.573 1.573 0 0 1-1.573-1.565l-.045-21.823a1.572 1.572 0 0 1 1.57-1.572l23.94-.049.003-.313zm0 0h-.004l-23.94.05a1.884 1.884 0 0 0-1.883 1.884l.045 21.823a1.884 1.884 0 0 0 1.887 1.877h.004l23.94-.049a1.884 1.884 0 0 0 1.883-1.885l-.045-21.823a1.884 1.884 0 0 0-1.887-1.877z" mask="url(#b)"/>
            <path fill="#031628" d="M74.33 32.407l-.937.002-.009-4.724.937-.002z" mask="url(#b)"/>
            <g mask="url(#b)">
                <path fill="#F73D2B" d="M77.1 27.671l-6.483.012c-.454.001-.823-.34-.824-.764v-.158c0-.422.366-.766.82-.767l6.483-.012c.454 0 .823.342.823.765v.157c.002.423-.365.766-.819.767"/>
                <path stroke="#FFF" d="M77.1 27.671l-6.483.012c-.454.001-.823-.34-.824-.764v-.158c0-.422.366-.766.82-.767l6.483-.012c.454 0 .823.342.823.765v.157c.002.423-.365.766-.819.767"/>
            </g>
            <path fill="#279E3F" d="M104.267 29.322c5.889 2.217 11.003 9.139 9.83 14.17-1.326 5.684-5.153 8.135-5.153 8.135l-1.205-2.282s3.06-4.9 2.793-7.214c-.425-3.707-4.993-6.182-4.993-6.182l-1.272-6.627" mask="url(#b)"/>
            <path fill="#031628" d="M89.312 92.528s-3.624 1.471-4.53 2.301l7.178-.014-.005-2.293-2.643.006M105.555 92.522s1.077 1.148 1.276 2.298l-5.128.01c.089-.796.457-1.557.956-2.303l2.896-.005" mask="url(#b)"/>
            <path fill="#252023" d="M105.629 92.516l-3.299.006c.066-4.003-.735-17.646-1.509-27.846-.455-5.982-.906-10.787-1.169-11.76l1.767-.401 6.669-1.527c1.141 5.371-1.494 30.033-2.46 41.528" mask="url(#b)"/>
            <path fill="#1B1219" d="M100.705 61.756c-.095-.932-.19-1.828-.284-2.672a182.67 182.67 0 0 1 3.196-7.04l1.42-.03a186.332 186.332 0 0 0-4.332 9.742" mask="url(#b)"/>
            <path fill="#252023" d="M93.348 52.555c-2.662 4.187-3.35 34.434-4.464 40.04l3.236.183s3.717-19.07 11.634-40.508l-10.406.285" mask="url(#b)"/>
            <path fill="#FFB29B" d="M95.193 18.689s-2.084 8.028 3.121 8.018l-.308 2.051 3.954.438-.855-2.86s.782-5.047.834-5.959c.098-1.702-4.62-4.702-6.746-1.688M75.735 35.29c-.357-1.466 1.008-1.433-.34-3.613-.834-1.348-3.55 1.232-2.872 2.14.676.907 1.577 2.39 1.577 2.39l1.635-.918" mask="url(#b)"/>
            <path fill="#4EBD5B" d="M88.884 35.349c-5.003 1.486-10.964 1.447-12.806-.512l-2.433 1.07s2.335 6.3 19.897 2.297c-.674 3.792 1.873 7.09-2.361 14.607 6.667 1.794 12.887 2.234 18.214-.036-.933-1.244 1.912-13.823-3.658-22.878-1.087-1.766-6.938-1.47-7.51-1.433-4.778.218-6.266 4.905-9.343 6.885" mask="url(#b)"/>
            <path fill="#252023" d="M97.598 20.308c.503.13 1.09.227 1.36.66.174.281.163.631.146.959.092-.343.467-.59.83-.548.363.042.667.37.673.723.003.166-.051.328-.112.484a5.846 5.846 0 0 1-.575 1.106c.632.235 1.16 2.103 1.476 2.684 1.062-.27 3.424-1.192 3.63-4.996.095-1.77-.439-3.891-2.338-5.071-1.342-.833-3.57-.845-5.106-.448-1.245.322-3.233 1.58-2.306 3.05.467.743 1.49 1.182 2.322 1.397" mask="url(#b)"/>
            <path fill="#252023" d="M103.78 18.028c.718-.238 1.628-.112 2.059.487.337.468.306 1.081.415 1.639.052.27.148.543.356.729.25.222.613.275.952.293.83.044 1.67-.06 2.488.078.818.139 1.655.6 1.887 1.365.13.422.059.887.214 1.301.231.623.894.976 1.471 1.338a9.583 9.583 0 0 1 3.027 3.011c.48.763.848 1.61.906 2.498.058.889.698 2.062.528 2.937-.185.943-1.112 2.218-2.946 2.808-3.169 1.02-4.173 1.461-7.208-.342-.366-.218-1.082-.958-1.413-1.222-.259-.208-.424-.508-.514-.82-.253-.872.039-1.81.494-2.602.455-.792 1.068-1.493 1.531-2.28.279-.474.506-1 .48-1.543-.01-.202-.062-.415-.21-.56-.128-.127-.31-.187-.49-.222-.667-.13-1.4.007-2.005-.291-.587-.292-.909-1.002-.73-1.611.118-.408.427-.751.515-1.166.127-.597-.248-1.21-.767-1.56-.52-.35-1.161-.484-1.787-.588-.309-.05-.632-.101-.883-.28-.309-.223-.45-.61-.447-.98.014-1.172.97-2.047 2.078-2.417" mask="url(#b)"/>
            <path fill="#252023" d="M103.058 21.195c3.805.849-.997 4.565 1.014 6.343.573.507 1.242.347 1.913.443 2.584.368 1.172 2.176.996 3.594-.027.213.316.257.363.05.22-.98 1.091-2.175.642-3.217-.397-.917-1.378-.81-2.183-.835-1.008-.031-2.12.002-1.743-2.067.085-.46.44-.927.615-1.36.2-.499.333-.994.223-1.54-.184-.923-.931-1.465-1.786-1.613-.126-.022-.183.173-.054.202M95.251 16.544c2.924-1.41 5.838-1.128 8.308.94.167.14.394-.075.245-.234-2.166-2.315-6.02-2.724-8.633-.836a.076.076 0 0 0 .08.13" mask="url(#b)"/>
        </g>
    </g>
</svg>
