<svg xmlns="http://www.w3.org/2000/svg" width="24" height="24" viewBox="0 0 24 24" fill="none" class="injected-svg" data-src="/v2/static/icons/play-market.svg" xmlns:xlink="http://www.w3.org/1999/xlink">
<path d="M2.37184 0.464404C2.0829 0.823382 1.94034 1.27922 1.973 1.73978V21.8908C1.9454 22.3537 2.00252 22.7165 2.29464 23.1376L2.38997 23.2528L13.6664 11.9519V11.6877L2.4353 0.400635L2.37184 0.464404Z" fill="#151515"></path>
<path d="M17.4462 15.6652L13.666 11.9936V11.7358L17.4462 8.05542L17.5292 8.09987L22.0563 10.5802C23.3471 11.2825 23.3471 12.4381 22.0563 13.1493L17.5292 15.6652H17.4462Z" fill="#151515"></path>
<path d="M13.6148 11.8831L2.375 23.2301C2.42729 23.3049 2.48996 23.3703 2.56062 23.4266C3.0214 23.7934 3.63564 23.7934 4.37337 23.373L17.5296 15.6654L13.6148 11.8831Z" fill="#151515"></path>
<path d="M17.5298 8.09993L4.30259 0.380653C3.74854 -0.0628309 2.96469 -0.0396765 2.43652 0.435775L13.6239 11.8829L17.5298 8.09993Z" fill="#151515"></path>
</svg>