<svg xmlns="http://www.w3.org/2000/svg" width="485" height="333" viewBox="0 0 485 333" fill="none" preserveAspectRatio="xMidYMid meet" class="injected-svg" data-src="/v2/static/icons/statistic-background.svg" xmlns:xlink="http://www.w3.org/1999/xlink">
<path d="M359.069 331.082C357.81 330.207 356.618 329.221 355.503 328.136C354.602 327.214 353.633 326.377 352.606 325.631C351.831 325.099 350.934 324.823 350.021 324.836C349.311 324.81 348.606 324.968 347.962 325.298C347.318 325.627 346.753 326.118 346.313 326.731C345.315 328.184 344.777 329.957 344.779 331.779H342.604C342.533 329.198 343.28 326.67 344.717 324.63C345.817 323.331 347.279 322.474 348.871 322.195C350.463 321.916 352.095 322.23 353.506 323.088C354.76 323.97 355.952 324.954 357.072 326.034C357.973 326.956 358.942 327.794 359.969 328.538C360.744 329.07 361.641 329.347 362.554 329.334C363.257 329.366 363.957 329.215 364.597 328.893C365.237 328.57 365.799 328.085 366.236 327.478C367.219 326.034 367.745 324.274 367.733 322.469H369.98C370.011 325.042 369.24 327.548 367.796 329.569C367.158 330.389 366.362 331.04 365.466 331.475C364.569 331.91 363.595 332.118 362.616 332.083C361.372 332.118 360.144 331.771 359.069 331.082Z" fill="#151515"></path>
<path d="M302.02 331.082C300.761 330.207 299.569 329.221 298.454 328.136C297.553 327.214 296.584 326.377 295.557 325.631C294.782 325.099 293.885 324.823 292.972 324.836C292.262 324.81 291.557 324.968 290.913 325.298C290.269 325.627 289.704 326.118 289.264 326.731C288.266 328.184 287.728 329.957 287.73 331.779H285.555C285.485 329.198 286.231 326.67 287.668 324.63C288.768 323.331 290.23 322.474 291.822 322.195C293.414 321.916 295.046 322.23 296.457 323.088C297.712 323.97 298.904 324.954 300.023 326.034C300.924 326.956 301.893 327.794 302.92 328.538C303.695 329.07 304.592 329.347 305.505 329.334C306.208 329.366 306.908 329.215 307.548 328.893C308.188 328.57 308.75 328.085 309.187 327.478C310.17 326.034 310.696 324.274 310.684 322.469H312.931C312.962 325.042 312.191 327.548 310.747 329.569C310.109 330.389 309.313 331.04 308.417 331.475C307.52 331.91 306.547 332.118 305.568 332.083C304.324 332.118 303.095 331.771 302.02 331.082Z" fill="#151515"></path>
<path d="M244.969 331.082C243.711 330.207 242.518 329.221 241.403 328.136C240.502 327.214 239.533 326.377 238.506 325.631C237.731 325.099 236.834 324.823 235.921 324.836C235.212 324.81 234.506 324.968 233.862 325.298C233.218 325.627 232.653 326.118 232.213 326.731C231.216 328.184 230.677 329.957 230.68 331.779H228.505C228.434 329.198 229.181 326.67 230.617 324.63C231.717 323.331 233.179 322.474 234.771 322.195C236.364 321.916 237.995 322.23 239.407 323.088C240.661 323.97 241.853 324.954 242.972 326.034C243.873 326.956 244.842 327.794 245.869 328.538C246.644 329.07 247.541 329.347 248.454 329.334C249.158 329.366 249.858 329.215 250.498 328.893C251.137 328.57 251.699 328.085 252.136 327.478C253.119 326.034 253.645 324.274 253.633 322.469H255.88C255.911 325.042 255.14 327.548 253.696 329.569C253.059 330.389 252.262 331.04 251.366 331.475C250.469 331.91 249.496 332.118 248.517 332.083C247.273 332.118 246.044 331.771 244.969 331.082Z" fill="#151515"></path>
<path d="M187.92 331.082C186.662 330.207 185.469 329.221 184.354 328.136C183.453 327.214 182.484 326.377 181.457 325.631C180.683 325.099 179.785 324.823 178.872 324.836C178.163 324.81 177.458 324.968 176.814 325.298C176.169 325.627 175.604 326.118 175.164 326.731C174.167 328.184 173.628 329.957 173.631 331.779H171.456C171.385 329.198 172.132 326.67 173.568 324.63C174.668 323.331 176.13 322.474 177.723 322.195C179.315 321.916 180.946 322.23 182.358 323.088C183.612 323.97 184.804 324.954 185.923 326.034C186.824 326.956 187.793 327.794 188.82 328.538C189.595 329.07 190.493 329.347 191.406 329.334C192.109 329.366 192.809 329.215 193.449 328.893C194.089 328.57 194.65 328.085 195.087 327.478C196.07 326.034 196.596 324.274 196.585 322.469H198.831C198.862 325.042 198.092 327.548 196.647 329.569C196.01 330.389 195.213 331.04 194.317 331.475C193.421 331.91 192.447 332.118 191.468 332.083C190.224 332.118 188.996 331.771 187.92 331.082Z" fill="#151515"></path>
<path d="M130.869 331.082C129.611 330.207 128.419 329.221 127.304 328.136C126.402 327.214 125.433 326.377 124.407 325.631C123.632 325.099 122.735 324.823 121.821 324.836C121.112 324.81 120.407 324.968 119.763 325.298C119.119 325.627 118.554 326.118 118.113 326.731C117.116 328.184 116.577 329.957 116.58 331.779H114.405C114.334 329.198 115.081 326.67 116.518 324.63C117.618 323.331 119.08 322.474 120.672 322.195C122.264 321.916 123.895 322.23 125.307 323.088C126.561 323.97 127.753 324.954 128.873 326.034C129.773 326.956 130.742 327.794 131.77 328.538C132.544 329.07 133.442 329.347 134.355 329.334C135.058 329.366 135.758 329.215 136.398 328.893C137.038 328.57 137.599 328.085 138.036 327.478C139.019 326.034 139.545 324.274 139.534 322.469H141.78C141.812 325.042 141.041 327.548 139.596 329.569C138.959 330.389 138.163 331.04 137.266 331.475C136.37 331.91 135.396 332.118 134.417 332.083C133.173 332.118 131.945 331.771 130.869 331.082Z" fill="#151515"></path>
<path d="M73.8185 331.082C72.5601 330.207 71.3677 329.221 70.2529 328.136C69.3516 327.214 68.3826 326.377 67.3558 325.631C66.581 325.099 65.6838 324.823 64.7707 324.836C64.0611 324.81 63.356 324.968 62.7119 325.298C62.0679 325.627 61.5029 326.118 61.0625 326.731C60.0651 328.184 59.5266 329.957 59.5292 331.779H57.3542C57.2834 329.198 58.0303 326.67 59.4669 324.63C60.5668 323.331 62.0287 322.474 63.621 322.195C65.2132 321.916 66.8445 322.23 68.2561 323.088C69.5104 323.97 70.7023 324.954 71.8218 326.034C72.7225 326.956 73.6916 327.794 74.7189 328.538C75.4937 329.07 76.3909 329.347 77.304 329.334C78.007 329.366 78.7072 329.215 79.3471 328.893C79.987 328.57 80.5484 328.085 80.9855 327.478C81.9686 326.034 82.4946 324.274 82.483 322.469H84.7294C84.7608 325.042 83.9899 327.548 82.5455 329.569C81.9081 330.389 81.1118 331.04 80.2154 331.475C79.319 331.91 78.3453 332.118 77.3663 332.083C76.1223 332.118 74.894 331.771 73.8185 331.082Z" fill="#151515"></path>
<path d="M16.7678 331.082C15.5094 330.207 14.317 329.221 13.2022 328.136C12.3008 327.214 11.3318 326.377 10.3051 325.631C9.53027 325.099 8.63301 324.823 7.71995 324.836C7.01034 324.81 6.30523 324.968 5.66117 325.298C5.01711 325.627 4.45215 326.118 4.01175 326.731C3.01437 328.184 2.47583 329.957 2.47844 331.779H0.303444C0.232579 329.198 0.979538 326.67 2.41609 324.63C3.516 323.331 4.97798 322.474 6.57021 322.195C8.16245 321.916 9.79376 322.23 11.2054 323.088C12.4596 323.97 13.6516 324.954 14.7711 326.034C15.6718 326.956 16.6409 327.794 17.6682 328.538C18.443 329.07 19.3402 329.347 20.2533 329.334C20.9564 329.366 21.6565 329.215 22.2964 328.893C22.9363 328.57 23.4977 328.085 23.9348 327.478C24.918 326.034 25.444 324.274 25.4323 322.469H27.6787C27.7101 325.042 26.9392 327.548 25.4948 329.569C24.8574 330.389 24.0611 331.04 23.1647 331.475C22.2683 331.91 21.2947 332.118 20.3156 332.083C19.0716 332.118 17.8433 331.771 16.7678 331.082Z" fill="#151515"></path>
<path d="M373.336 290.82C372.078 289.945 370.885 288.96 369.77 287.874C368.869 286.952 367.9 286.115 366.873 285.37C366.099 284.837 365.201 284.561 364.288 284.574C363.579 284.549 362.874 284.707 362.23 285.036C361.585 285.365 361.02 285.856 360.58 286.47C359.583 287.923 359.044 289.695 359.047 291.517H356.872C356.801 288.936 357.548 286.408 358.984 284.368C360.084 283.069 361.546 282.212 363.139 281.933C364.731 281.654 366.362 281.968 367.774 282.826C369.028 283.708 370.22 284.693 371.339 285.772C372.24 286.694 373.209 287.532 374.236 288.276C375.011 288.809 375.908 289.085 376.822 289.072C377.525 289.105 378.225 288.954 378.865 288.631C379.505 288.308 380.066 287.823 380.503 287.216C381.486 285.772 382.012 284.013 382.001 282.208H384.247C384.278 284.78 383.507 287.286 382.063 289.307C381.426 290.127 380.629 290.778 379.733 291.213C378.837 291.648 377.863 291.856 376.884 291.821C375.64 291.856 374.412 291.509 373.336 290.82Z" fill="#151515"></path>
<path d="M316.285 290.82C315.027 289.945 313.835 288.96 312.72 287.874C311.818 286.952 310.849 286.115 309.823 285.37C309.048 284.837 308.151 284.561 307.238 284.574C306.528 284.549 305.823 284.707 305.179 285.036C304.535 285.365 303.97 285.856 303.529 286.47C302.532 287.923 301.993 289.695 301.996 291.517H299.821C299.75 288.936 300.497 286.408 301.934 284.368C303.034 283.069 304.496 282.212 306.088 281.933C307.68 281.654 309.311 281.968 310.723 282.826C311.977 283.708 313.169 284.693 314.289 285.772C315.189 286.694 316.158 287.532 317.186 288.276C317.961 288.809 318.858 289.085 319.771 289.072C320.474 289.105 321.174 288.954 321.814 288.631C322.454 288.308 323.015 287.823 323.452 287.216C324.436 285.772 324.962 284.013 324.95 282.208H327.196C327.228 284.78 326.457 287.286 325.012 289.307C324.375 290.127 323.579 290.778 322.682 291.213C321.786 291.648 320.812 291.856 319.833 291.821C318.589 291.856 317.361 291.509 316.285 290.82Z" fill="#151515"></path>
<path d="M259.235 290.82C257.976 289.945 256.784 288.96 255.669 287.874C254.768 286.952 253.799 286.115 252.772 285.37C251.997 284.837 251.1 284.561 250.187 284.574C249.477 284.549 248.772 284.707 248.128 285.036C247.484 285.365 246.919 285.856 246.479 286.47C245.481 287.923 244.943 289.695 244.945 291.517H242.77C242.699 288.936 243.446 286.408 244.883 284.368C245.983 283.069 247.445 282.212 249.037 281.933C250.629 281.654 252.261 281.968 253.672 282.826C254.926 283.708 256.118 284.693 257.238 285.772C258.139 286.694 259.108 287.532 260.135 288.276C260.91 288.809 261.807 289.085 262.72 289.072C263.423 289.105 264.123 288.954 264.763 288.631C265.403 288.308 265.964 287.823 266.402 287.216C267.385 285.772 267.911 284.013 267.899 282.208H270.145C270.177 284.78 269.406 287.286 267.962 289.307C267.324 290.127 266.528 290.778 265.631 291.213C264.735 291.648 263.761 291.856 262.782 291.821C261.538 291.856 260.31 291.509 259.235 290.82Z" fill="#151515"></path>
<path d="M202.184 290.82C200.925 289.945 199.733 288.96 198.618 287.874C197.717 286.952 196.748 286.115 195.721 285.37C194.946 284.837 194.049 284.561 193.136 284.574C192.426 284.549 191.721 284.707 191.077 285.036C190.433 285.365 189.868 285.856 189.428 286.47C188.43 287.923 187.892 289.695 187.894 291.517H185.719C185.649 288.936 186.396 286.408 187.832 284.368C188.932 283.069 190.394 282.212 191.986 281.933C193.578 281.654 195.21 281.968 196.621 282.826C197.876 283.708 199.068 284.693 200.187 285.772C201.088 286.694 202.057 287.532 203.084 288.276C203.859 288.809 204.756 289.085 205.669 289.072C206.372 289.105 207.073 288.954 207.712 288.631C208.352 288.308 208.914 287.823 209.351 287.216C210.334 285.772 210.86 284.013 210.848 282.208H213.095C213.126 284.78 212.355 287.286 210.911 289.307C210.273 290.127 209.477 290.778 208.581 291.213C207.684 291.648 206.711 291.856 205.732 291.821C204.488 291.856 203.259 291.509 202.184 290.82Z" fill="#151515"></path>
<path d="M145.133 290.82C143.875 289.945 142.682 288.96 141.567 287.874C140.666 286.952 139.697 286.115 138.67 285.37C137.895 284.837 136.998 284.561 136.085 284.574C135.376 284.549 134.67 284.707 134.026 285.036C133.382 285.365 132.817 285.856 132.377 286.47C131.38 287.923 130.841 289.695 130.844 291.517H128.669C128.598 288.936 129.345 286.408 130.781 284.368C131.881 283.069 133.343 282.212 134.935 281.933C136.528 281.654 138.159 281.968 139.571 282.826C140.825 283.708 142.017 284.693 143.136 285.772C144.037 286.694 145.006 287.532 146.033 288.276C146.808 288.809 147.705 289.085 148.618 289.072C149.322 289.105 150.022 288.954 150.662 288.631C151.301 288.308 151.863 287.823 152.3 287.216C153.283 285.772 153.809 284.013 153.797 282.208H156.044C156.075 284.78 155.304 287.286 153.86 289.307C153.223 290.127 152.426 290.778 151.53 291.213C150.634 291.648 149.66 291.856 148.681 291.821C147.437 291.856 146.208 291.509 145.133 290.82Z" fill="#151515"></path>
<path d="M88.0842 290.82C86.8258 289.945 85.6334 288.96 84.5186 287.874C83.6172 286.952 82.6482 286.115 81.6215 285.37C80.8467 284.837 79.9494 284.561 79.0364 284.574C78.3267 284.549 77.6216 284.707 76.9776 285.036C76.3335 285.365 75.7686 285.856 75.3282 286.47C74.3308 287.923 73.7922 289.695 73.7948 291.517H71.6199C71.549 288.936 72.2959 286.408 73.7325 284.368C74.8324 283.069 76.2944 282.212 77.8866 281.933C79.4789 281.654 81.1102 281.968 82.5218 282.826C83.7761 283.708 84.968 284.693 86.0875 285.772C86.9882 286.694 87.9573 287.532 88.9846 288.276C89.7594 288.809 90.6566 289.085 91.5697 289.072C92.2728 289.105 92.9729 288.954 93.6128 288.631C94.2527 288.308 94.8141 287.823 95.2512 287.216C96.2344 285.772 96.7604 284.013 96.7487 282.208H98.9951C99.0265 284.78 98.2556 287.286 96.8112 289.307C96.1738 290.127 95.3775 290.778 94.4811 291.213C93.5847 291.648 92.6111 291.856 91.632 291.821C90.388 291.856 89.1597 291.509 88.0842 290.82Z" fill="#151515"></path>
<path d="M31.0334 290.82C29.775 289.945 28.5826 288.96 27.4678 287.874C26.5664 286.952 25.5974 286.115 24.5707 285.37C23.7959 284.837 22.8986 284.561 21.9856 284.574C21.276 284.549 20.5708 284.707 19.9268 285.036C19.2827 285.365 18.7178 285.856 18.2774 286.47C17.28 287.923 16.7414 289.695 16.7441 291.517H14.5691C14.4982 288.936 15.2452 286.408 16.6817 284.368C17.7816 283.069 19.2436 282.212 20.8358 281.933C22.4281 281.654 24.0594 281.968 25.471 282.826C26.7253 283.708 27.9172 284.693 29.0367 285.772C29.9374 286.694 30.9065 287.532 31.9338 288.276C32.7086 288.809 33.6058 289.085 34.5189 289.072C35.222 289.105 35.9221 288.954 36.562 288.631C37.2019 288.308 37.7633 287.823 38.2004 287.216C39.1835 285.772 39.7096 284.013 39.6979 282.208H41.9443C41.9757 284.78 41.2048 287.286 39.7604 289.307C39.123 290.127 38.3267 290.778 37.4303 291.213C36.5339 291.648 35.5603 291.856 34.5812 291.821C33.3372 291.856 32.1089 291.509 31.0334 290.82Z" fill="#151515"></path>
<path d="M387.594 250.558C386.336 249.683 385.143 248.698 384.028 247.612C383.127 246.691 382.158 245.853 381.131 245.108C380.356 244.576 379.459 244.3 378.546 244.313C377.836 244.287 377.131 244.445 376.487 244.774C375.843 245.103 375.278 245.594 374.838 246.208C373.841 247.661 373.302 249.434 373.305 251.255H371.13C371.059 248.674 371.806 246.147 373.242 244.106C374.342 242.808 375.804 241.951 377.396 241.671C378.989 241.392 380.62 241.707 382.032 242.565C383.286 243.446 384.478 244.431 385.597 245.511C386.498 246.433 387.467 247.27 388.494 248.015C389.269 248.547 390.166 248.823 391.079 248.81C391.782 248.843 392.483 248.692 393.123 248.369C393.762 248.047 394.324 247.562 394.761 246.954C395.744 245.51 396.27 243.751 396.258 241.946H398.505C398.536 244.518 397.765 247.024 396.321 249.046C395.684 249.865 394.887 250.516 393.991 250.952C393.094 251.387 392.121 251.594 391.142 251.56C389.898 251.595 388.669 251.248 387.594 250.558Z" fill="#151515"></path>
<path d="M330.545 250.558C329.287 249.683 328.094 248.698 326.979 247.612C326.078 246.691 325.109 245.853 324.082 245.108C323.308 244.576 322.41 244.3 321.497 244.313C320.788 244.287 320.083 244.445 319.439 244.774C318.794 245.103 318.229 245.594 317.789 246.208C316.792 247.661 316.253 249.434 316.256 251.255H314.081C314.01 248.674 314.757 246.147 316.193 244.106C317.293 242.808 318.755 241.951 320.348 241.671C321.94 241.392 323.571 241.707 324.983 242.565C326.237 243.446 327.429 244.431 328.548 245.511C329.449 246.433 330.418 247.27 331.445 248.015C332.22 248.547 333.118 248.823 334.031 248.81C334.734 248.843 335.434 248.692 336.074 248.369C336.714 248.047 337.275 247.562 337.712 246.954C338.695 245.51 339.221 243.751 339.21 241.946H341.456C341.487 244.518 340.716 247.024 339.272 249.046C338.635 249.865 337.838 250.516 336.942 250.952C336.046 251.387 335.072 251.594 334.093 251.56C332.849 251.595 331.621 251.248 330.545 250.558Z" fill="#151515"></path>
<path d="M273.494 250.558C272.236 249.683 271.044 248.698 269.929 247.612C269.027 246.691 268.058 245.853 267.032 245.108C266.257 244.576 265.36 244.3 264.447 244.313C263.737 244.287 263.032 244.445 262.388 244.774C261.744 245.103 261.179 245.594 260.738 246.208C259.741 247.661 259.202 249.434 259.205 251.255H257.03C256.959 248.674 257.706 246.147 259.143 244.106C260.243 242.808 261.705 241.951 263.297 241.671C264.889 241.392 266.52 241.707 267.932 242.565C269.186 243.446 270.378 244.431 271.498 245.511C272.398 246.433 273.367 247.27 274.395 248.015C275.17 248.547 276.067 248.823 276.98 248.81C277.683 248.843 278.383 248.692 279.023 248.369C279.663 248.047 280.224 247.562 280.661 246.954C281.645 245.51 282.171 243.751 282.159 241.946H284.405C284.437 244.518 283.666 247.024 282.221 249.046C281.584 249.865 280.788 250.516 279.891 250.952C278.995 251.387 278.021 251.594 277.042 251.56C275.798 251.595 274.57 251.248 273.494 250.558Z" fill="#151515"></path>
<path d="M216.444 250.558C215.185 249.683 213.993 248.698 212.878 247.612C211.977 246.691 211.008 245.853 209.981 245.108C209.206 244.576 208.309 244.3 207.396 244.313C206.686 244.287 205.981 244.445 205.337 244.774C204.693 245.103 204.128 245.594 203.688 246.208C202.69 247.661 202.152 249.434 202.154 251.255H199.979C199.908 248.674 200.655 246.147 202.092 244.106C203.192 242.808 204.654 241.951 206.246 241.671C207.838 241.392 209.47 241.707 210.881 242.565C212.135 243.446 213.327 244.431 214.447 245.511C215.348 246.433 216.317 247.27 217.344 248.015C218.119 248.547 219.016 248.823 219.929 248.81C220.632 248.843 221.332 248.692 221.972 248.369C222.612 248.047 223.173 247.562 223.611 246.954C224.594 245.51 225.12 243.751 225.108 241.946H227.354C227.386 244.518 226.615 247.024 225.171 249.046C224.533 249.865 223.737 250.516 222.84 250.952C221.944 251.387 220.97 251.594 219.991 251.56C218.747 251.595 217.519 251.248 216.444 250.558Z" fill="#151515"></path>
<path d="M159.395 250.558C158.136 249.683 156.944 248.698 155.829 247.612C154.928 246.691 153.959 245.853 152.932 245.108C152.157 244.576 151.26 244.3 150.347 244.313C149.637 244.287 148.932 244.445 148.288 244.774C147.644 245.103 147.079 245.594 146.639 246.208C145.641 247.661 145.103 249.434 145.105 251.255H142.93C142.86 248.674 143.606 246.147 145.043 244.106C146.143 242.808 147.605 241.951 149.197 241.671C150.789 241.392 152.421 241.707 153.832 242.565C155.087 243.446 156.279 244.431 157.398 245.511C158.299 246.433 159.268 247.27 160.295 248.015C161.07 248.547 161.967 248.823 162.88 248.81C163.583 248.843 164.283 248.692 164.923 248.369C165.563 248.047 166.125 247.562 166.562 246.954C167.545 245.51 168.071 243.751 168.059 241.946H170.306C170.337 244.518 169.566 247.024 168.122 249.046C167.484 249.865 166.688 250.516 165.792 250.952C164.895 251.387 163.922 251.594 162.943 251.56C161.699 251.595 160.47 251.248 159.395 250.558Z" fill="#151515"></path>
<path d="M102.342 250.558C101.084 249.683 99.8912 248.698 98.7764 247.612C97.875 246.691 96.906 245.853 95.8793 245.108C95.1045 244.576 94.2072 244.3 93.2942 244.313C92.5845 244.287 91.8794 244.445 91.2354 244.774C90.5913 245.103 90.0264 245.594 89.586 246.208C88.5886 247.661 88.05 249.434 88.0527 251.255H85.8777C85.8068 248.674 86.5538 246.147 87.9903 244.106C89.0902 242.808 90.5522 241.951 92.1444 241.671C93.7366 241.392 95.368 241.707 96.7796 242.565C98.0338 243.446 99.2258 244.431 100.345 245.511C101.246 246.433 102.215 247.27 103.242 248.015C104.017 248.547 104.914 248.823 105.827 248.81C106.531 248.843 107.231 248.692 107.871 248.369C108.51 248.047 109.072 247.562 109.509 246.954C110.492 245.51 111.018 243.751 111.006 241.946H113.253C113.284 244.518 112.513 247.024 111.069 249.046C110.432 249.865 109.635 250.516 108.739 250.952C107.843 251.387 106.869 251.594 105.89 251.56C104.646 251.595 103.417 251.248 102.342 250.558Z" fill="#151515"></path>
<path d="M45.2932 250.558C44.0348 249.683 42.8424 248.698 41.7276 247.612C40.8262 246.691 39.8572 245.853 38.8305 245.108C38.0557 244.576 37.1584 244.3 36.2453 244.313C35.5357 244.287 34.8306 244.445 34.1866 244.774C33.5425 245.103 32.9775 245.594 32.5371 246.208C31.5398 247.661 31.0012 249.434 31.0038 251.255H28.8288C28.758 248.674 29.5049 246.147 30.9415 244.106C32.0414 242.808 33.5034 241.951 35.0956 241.671C36.6878 241.392 38.3192 241.707 39.7308 242.565C40.985 243.446 42.177 244.431 43.2965 245.511C44.1972 246.433 45.1663 247.27 46.1935 248.015C46.9683 248.547 47.8656 248.823 48.7787 248.81C49.4817 248.843 50.1819 248.692 50.8218 248.369C51.4617 248.047 52.0231 247.562 52.4602 246.954C53.4433 245.51 53.9694 243.751 53.9577 241.946H56.2041C56.2355 244.518 55.4646 247.024 54.0202 249.046C53.3828 249.865 52.5865 250.516 51.6901 250.952C50.7937 251.387 49.8201 251.594 48.841 251.56C47.597 251.595 46.3687 251.248 45.2932 250.558Z" fill="#151515"></path>
<path d="M401.86 210.295C400.601 209.42 399.409 208.435 398.294 207.349C397.393 206.428 396.424 205.591 395.397 204.845C394.622 204.313 393.725 204.037 392.812 204.05C392.102 204.024 391.397 204.182 390.753 204.511C390.109 204.841 389.544 205.332 389.104 205.945C388.106 207.398 387.568 209.171 387.57 210.993H385.395C385.324 208.412 386.071 205.884 387.508 203.844C388.608 202.545 390.07 201.688 391.662 201.409C393.254 201.129 394.886 201.444 396.297 202.302C397.551 203.184 398.743 204.168 399.863 205.248C400.764 206.17 401.733 207.008 402.76 207.752C403.535 208.284 404.432 208.56 405.345 208.547C406.048 208.58 406.748 208.429 407.388 208.107C408.028 207.784 408.589 207.299 409.027 206.691C410.01 205.248 410.536 203.488 410.524 201.683H412.77C412.802 204.256 412.031 206.762 410.586 208.783C409.949 209.602 409.153 210.254 408.256 210.689C407.36 211.124 406.386 211.332 405.407 211.297C404.163 211.332 402.935 210.985 401.86 210.295Z" fill="#151515"></path>
<path d="M344.811 210.295C343.552 209.42 342.36 208.435 341.245 207.349C340.344 206.428 339.375 205.591 338.348 204.845C337.573 204.313 336.676 204.037 335.763 204.05C335.053 204.024 334.348 204.182 333.704 204.511C333.06 204.841 332.495 205.332 332.055 205.945C331.057 207.398 330.519 209.171 330.521 210.993H328.346C328.276 208.412 329.023 205.884 330.459 203.844C331.559 202.545 333.021 201.688 334.613 201.409C336.205 201.129 337.837 201.444 339.248 202.302C340.503 203.184 341.695 204.168 342.814 205.248C343.715 206.17 344.684 207.008 345.711 207.752C346.486 208.284 347.383 208.56 348.296 208.547C348.999 208.58 349.699 208.429 350.339 208.107C350.979 207.784 351.541 207.299 351.978 206.691C352.961 205.248 353.487 203.488 353.475 201.683H355.722C355.753 204.256 354.982 206.762 353.538 208.783C352.9 209.602 352.104 210.254 351.208 210.689C350.311 211.124 349.338 211.332 348.359 211.297C347.115 211.332 345.886 210.985 344.811 210.295Z" fill="#151515"></path>
<path d="M287.76 210.295C286.502 209.42 285.309 208.435 284.194 207.349C283.293 206.428 282.324 205.591 281.297 204.845C280.522 204.313 279.625 204.037 278.712 204.05C278.002 204.024 277.297 204.182 276.653 204.511C276.009 204.841 275.444 205.332 275.004 205.945C274.007 207.398 273.468 209.171 273.471 210.993H271.296C271.225 208.412 271.972 205.884 273.408 203.844C274.508 202.545 275.97 201.688 277.562 201.409C279.155 201.129 280.786 201.444 282.198 202.302C283.452 203.184 284.644 204.168 285.763 205.248C286.664 206.17 287.633 207.008 288.66 207.752C289.435 208.284 290.332 208.56 291.245 208.547C291.948 208.58 292.649 208.429 293.288 208.107C293.928 207.784 294.49 207.299 294.927 206.691C295.91 205.248 296.436 203.488 296.424 201.683H298.671C298.702 204.256 297.931 206.762 296.487 208.783C295.849 209.602 295.053 210.254 294.157 210.689C293.26 211.124 292.287 211.332 291.308 211.297C290.064 211.332 288.835 210.985 287.76 210.295Z" fill="#151515"></path>
<path d="M230.711 210.295C229.453 209.42 228.26 208.435 227.146 207.349C226.244 206.428 225.275 205.591 224.248 204.845C223.474 204.313 222.576 204.037 221.663 204.05C220.954 204.024 220.249 204.182 219.605 204.511C218.96 204.841 218.396 205.332 217.955 205.945C216.958 207.398 216.419 209.171 216.422 210.993H214.247C214.176 208.412 214.923 205.884 216.359 203.844C217.459 202.545 218.921 201.688 220.514 201.409C222.106 201.129 223.737 201.444 225.149 202.302C226.403 203.184 227.595 204.168 228.714 205.248C229.615 206.17 230.584 207.008 231.611 207.752C232.386 208.284 233.284 208.56 234.197 208.547C234.9 208.58 235.6 208.429 236.24 208.107C236.88 207.784 237.441 207.299 237.878 206.691C238.861 205.248 239.387 203.488 239.376 201.683H241.622C241.653 204.256 240.883 206.762 239.438 208.783C238.801 209.602 238.004 210.254 237.108 210.689C236.212 211.124 235.238 211.332 234.259 211.297C233.015 211.332 231.787 210.985 230.711 210.295Z" fill="#151515"></path>
<path d="M173.658 210.295C172.4 209.42 171.208 208.435 170.093 207.349C169.191 206.428 168.222 205.591 167.196 204.845C166.421 204.313 165.524 204.037 164.611 204.05C163.901 204.024 163.196 204.182 162.552 204.511C161.908 204.841 161.343 205.332 160.902 205.945C159.905 207.398 159.366 209.171 159.369 210.993H157.194C157.123 208.412 157.87 205.884 159.307 203.844C160.407 202.545 161.869 201.688 163.461 201.409C165.053 201.129 166.684 201.444 168.096 202.302C169.35 203.184 170.542 204.168 171.662 205.248C172.562 206.17 173.531 207.008 174.559 207.752C175.334 208.284 176.231 208.56 177.144 208.547C177.847 208.58 178.547 208.429 179.187 208.107C179.827 207.784 180.388 207.299 180.825 206.691C181.809 205.248 182.335 203.488 182.323 201.683H184.569C184.601 204.256 183.83 206.762 182.385 208.783C181.748 209.602 180.952 210.254 180.055 210.689C179.159 211.124 178.185 211.332 177.206 211.297C175.962 211.332 174.734 210.985 173.658 210.295Z" fill="#151515"></path>
<path d="M116.61 210.295C115.351 209.42 114.159 208.435 113.044 207.349C112.143 206.428 111.174 205.591 110.147 204.845C109.372 204.313 108.475 204.037 107.562 204.05C106.852 204.024 106.147 204.182 105.503 204.511C104.859 204.841 104.294 205.332 103.854 205.945C102.856 207.398 102.318 209.171 102.32 210.993H100.145C100.074 208.412 100.821 205.884 102.258 203.844C103.358 202.545 104.82 201.688 106.412 201.409C108.004 201.129 109.636 201.444 111.047 202.302C112.301 203.184 113.493 204.168 114.613 205.248C115.514 206.17 116.483 207.008 117.51 207.752C118.285 208.284 119.182 208.56 120.095 208.547C120.798 208.58 121.498 208.429 122.138 208.107C122.778 207.784 123.339 207.299 123.777 206.691C124.76 205.248 125.286 203.488 125.274 201.683H127.52C127.552 204.256 126.781 206.762 125.337 208.783C124.699 209.602 123.903 210.254 123.006 210.689C122.11 211.124 121.136 211.332 120.157 211.297C118.913 211.332 117.685 210.985 116.61 210.295Z" fill="#151515"></path>
<path d="M59.5588 210.295C58.3004 209.42 57.108 208.435 55.9932 207.349C55.0918 206.428 54.1228 205.591 53.0961 204.845C52.3213 204.313 51.424 204.037 50.511 204.05C49.8013 204.024 49.0962 204.182 48.4522 204.511C47.8081 204.841 47.2432 205.332 46.8028 205.945C45.8054 207.398 45.2668 209.171 45.2695 210.993H43.0945C43.0236 208.412 43.7706 205.884 45.2071 203.844C46.307 202.545 47.769 201.688 49.3612 201.409C50.9535 201.129 52.5848 201.444 53.9964 202.302C55.2506 203.184 56.4426 204.168 57.5621 205.248C58.4628 206.17 59.4319 207.008 60.4591 207.752C61.234 208.284 62.1312 208.56 63.0443 208.547C63.7473 208.58 64.4475 208.429 65.0874 208.107C65.7273 207.784 66.2887 207.299 66.7258 206.691C67.7089 205.248 68.235 203.488 68.2233 201.683H70.4697C70.5011 204.256 69.7302 206.762 68.2858 208.783C67.6484 209.602 66.8521 210.254 65.9557 210.689C65.0593 211.124 64.0857 211.332 63.1066 211.297C61.8626 211.332 60.6343 210.985 59.5588 210.295Z" fill="#151515"></path>
<path d="M416.119 170.034C414.861 169.159 413.668 168.174 412.554 167.088C411.652 166.166 410.683 165.329 409.657 164.584C408.882 164.051 407.985 163.775 407.071 163.788C406.362 163.762 405.657 163.92 405.013 164.25C404.369 164.579 403.804 165.07 403.363 165.683C402.366 167.136 401.827 168.909 401.83 170.731H399.655C399.584 168.15 400.331 165.622 401.768 163.582C402.868 162.283 404.33 161.426 405.922 161.147C407.514 160.868 409.145 161.182 410.557 162.04C411.811 162.922 413.003 163.907 414.123 164.986C415.023 165.908 415.992 166.746 417.02 167.49C417.794 168.023 418.692 168.299 419.605 168.286C420.308 168.318 421.008 168.167 421.648 167.845C422.288 167.522 422.849 167.037 423.286 166.43C424.269 164.986 424.795 163.226 424.784 161.422H427.03C427.061 163.994 426.291 166.5 424.846 168.521C424.209 169.341 423.413 169.992 422.516 170.427C421.62 170.862 420.646 171.07 419.667 171.035C418.423 171.07 417.195 170.723 416.119 170.034Z" fill="#151515"></path>
<path d="M359.069 170.034C357.81 169.159 356.618 168.174 355.503 167.088C354.602 166.166 353.633 165.329 352.606 164.584C351.831 164.051 350.934 163.775 350.021 163.788C349.311 163.762 348.606 163.92 347.962 164.25C347.318 164.579 346.753 165.07 346.313 165.683C345.315 167.136 344.777 168.909 344.779 170.731H342.604C342.533 168.15 343.28 165.622 344.717 163.582C345.817 162.283 347.279 161.426 348.871 161.147C350.463 160.868 352.095 161.182 353.506 162.04C354.76 162.922 355.952 163.907 357.072 164.986C357.973 165.908 358.942 166.746 359.969 167.49C360.744 168.023 361.641 168.299 362.554 168.286C363.257 168.318 363.957 168.167 364.597 167.845C365.237 167.522 365.799 167.037 366.236 166.43C367.219 164.986 367.745 163.226 367.733 161.422H369.98C370.011 163.994 369.24 166.5 367.796 168.521C367.158 169.341 366.362 169.992 365.466 170.427C364.569 170.862 363.595 171.07 362.616 171.035C361.372 171.07 360.144 170.723 359.069 170.034Z" fill="#151515"></path>
<path d="M302.02 170.034C300.761 169.159 299.569 168.174 298.454 167.088C297.553 166.166 296.584 165.329 295.557 164.584C294.782 164.051 293.885 163.775 292.972 163.788C292.262 163.762 291.557 163.92 290.913 164.25C290.269 164.579 289.704 165.07 289.264 165.683C288.266 167.136 287.728 168.909 287.73 170.731H285.555C285.485 168.15 286.231 165.622 287.668 163.582C288.768 162.283 290.23 161.426 291.822 161.147C293.414 160.868 295.046 161.182 296.457 162.04C297.712 162.922 298.904 163.907 300.023 164.986C300.924 165.908 301.893 166.746 302.92 167.49C303.695 168.023 304.592 168.299 305.505 168.286C306.208 168.318 306.908 168.167 307.548 167.845C308.188 167.522 308.75 167.037 309.187 166.43C310.17 164.986 310.696 163.226 310.684 161.422H312.931C312.962 163.994 312.191 166.5 310.747 168.521C310.109 169.341 309.313 169.992 308.417 170.427C307.52 170.862 306.547 171.07 305.568 171.035C304.324 171.07 303.095 170.723 302.02 170.034Z" fill="#151515"></path>
<path d="M244.969 170.034C243.711 169.159 242.518 168.174 241.403 167.088C240.502 166.166 239.533 165.329 238.506 164.584C237.731 164.051 236.834 163.775 235.921 163.788C235.212 163.762 234.506 163.92 233.862 164.25C233.218 164.579 232.653 165.07 232.213 165.683C231.216 167.136 230.677 168.909 230.68 170.731H228.505C228.434 168.15 229.181 165.622 230.617 163.582C231.717 162.283 233.179 161.426 234.771 161.147C236.364 160.868 237.995 161.182 239.407 162.04C240.661 162.922 241.853 163.907 242.972 164.986C243.873 165.908 244.842 166.746 245.869 167.49C246.644 168.023 247.541 168.299 248.454 168.286C249.158 168.318 249.858 168.167 250.498 167.845C251.137 167.522 251.699 167.037 252.136 166.43C253.119 164.986 253.645 163.226 253.633 161.422H255.88C255.911 163.994 255.14 166.5 253.696 168.521C253.059 169.341 252.262 169.992 251.366 170.427C250.469 170.862 249.496 171.07 248.517 171.035C247.273 171.07 246.044 170.723 244.969 170.034Z" fill="#151515"></path>
<path d="M187.92 170.034C186.662 169.159 185.469 168.174 184.354 167.088C183.453 166.166 182.484 165.329 181.457 164.584C180.683 164.051 179.785 163.775 178.872 163.788C178.163 163.762 177.458 163.92 176.814 164.25C176.169 164.579 175.604 165.07 175.164 165.683C174.167 167.136 173.628 168.909 173.631 170.731H171.456C171.385 168.15 172.132 165.622 173.568 163.582C174.668 162.283 176.13 161.426 177.723 161.147C179.315 160.868 180.946 161.182 182.358 162.04C183.612 162.922 184.804 163.907 185.923 164.986C186.824 165.908 187.793 166.746 188.82 167.49C189.595 168.023 190.493 168.299 191.406 168.286C192.109 168.318 192.809 168.167 193.449 167.845C194.089 167.522 194.65 167.037 195.087 166.43C196.07 164.986 196.596 163.226 196.585 161.422H198.831C198.862 163.994 198.092 166.5 196.647 168.521C196.01 169.341 195.213 169.992 194.317 170.427C193.421 170.862 192.447 171.07 191.468 171.035C190.224 171.07 188.996 170.723 187.92 170.034Z" fill="#151515"></path>
<path d="M130.869 170.034C129.611 169.159 128.419 168.174 127.304 167.088C126.402 166.166 125.433 165.329 124.407 164.584C123.632 164.051 122.735 163.775 121.821 163.788C121.112 163.762 120.407 163.92 119.763 164.25C119.119 164.579 118.554 165.07 118.113 165.683C117.116 167.136 116.577 168.909 116.58 170.731H114.405C114.334 168.15 115.081 165.622 116.518 163.582C117.618 162.283 119.08 161.426 120.672 161.147C122.264 160.868 123.895 161.182 125.307 162.04C126.561 162.922 127.753 163.907 128.873 164.986C129.773 165.908 130.742 166.746 131.77 167.49C132.544 168.023 133.442 168.299 134.355 168.286C135.058 168.318 135.758 168.167 136.398 167.845C137.038 167.522 137.599 167.037 138.036 166.43C139.019 164.986 139.545 163.226 139.534 161.422H141.78C141.812 163.994 141.041 166.5 139.596 168.521C138.959 169.341 138.163 169.992 137.266 170.427C136.37 170.862 135.396 171.07 134.417 171.035C133.173 171.07 131.945 170.723 130.869 170.034Z" fill="#151515"></path>
<path d="M73.8185 170.034C72.5601 169.159 71.3677 168.174 70.2529 167.088C69.3516 166.166 68.3826 165.329 67.3558 164.584C66.581 164.051 65.6838 163.775 64.7707 163.788C64.0611 163.762 63.356 163.92 62.7119 164.25C62.0679 164.579 61.5029 165.07 61.0625 165.683C60.0651 167.136 59.5266 168.909 59.5292 170.731H57.3542C57.2834 168.15 58.0303 165.622 59.4669 163.582C60.5668 162.283 62.0287 161.426 63.621 161.147C65.2132 160.868 66.8445 161.182 68.2561 162.04C69.5104 162.922 70.7023 163.907 71.8218 164.986C72.7225 165.908 73.6916 166.746 74.7189 167.49C75.4937 168.023 76.3909 168.299 77.304 168.286C78.007 168.318 78.7072 168.167 79.3471 167.845C79.987 167.522 80.5484 167.037 80.9855 166.43C81.9686 164.986 82.4946 163.226 82.483 161.422H84.7294C84.7608 163.994 83.9899 166.5 82.5455 168.521C81.9081 169.341 81.1118 169.992 80.2154 170.427C79.319 170.862 78.3453 171.07 77.3663 171.035C76.1223 171.07 74.894 170.723 73.8185 170.034Z" fill="#151515"></path>
<path d="M430.385 129.772C429.126 128.897 427.934 127.912 426.819 126.826C425.918 125.905 424.949 125.067 423.922 124.322C423.147 123.79 422.25 123.513 421.337 123.526C420.627 123.501 419.922 123.659 419.278 123.988C418.634 124.317 418.069 124.808 417.629 125.422C416.632 126.875 416.093 128.647 416.096 130.469H413.921C413.85 127.888 414.597 125.361 416.033 123.32C417.133 122.022 418.595 121.165 420.187 120.885C421.78 120.606 423.411 120.92 424.823 121.778C426.077 122.66 427.269 123.645 428.388 124.724C429.289 125.647 430.258 126.484 431.285 127.229C432.06 127.761 432.957 128.037 433.87 128.024C434.573 128.057 435.274 127.906 435.913 127.583C436.553 127.26 437.115 126.776 437.552 126.168C438.535 124.724 439.061 122.965 439.049 121.16H441.296C441.327 123.732 440.556 126.238 439.112 128.26C438.474 129.079 437.678 129.73 436.782 130.165C435.885 130.601 434.912 130.808 433.933 130.774C432.689 130.808 431.46 130.462 430.385 129.772Z" fill="#151515"></path>
<path d="M373.336 129.772C372.078 128.897 370.885 127.912 369.77 126.826C368.869 125.905 367.9 125.067 366.873 124.322C366.099 123.79 365.201 123.513 364.288 123.526C363.579 123.501 362.874 123.659 362.23 123.988C361.585 124.317 361.02 124.808 360.58 125.422C359.583 126.875 359.044 128.647 359.047 130.469H356.872C356.801 127.888 357.548 125.361 358.984 123.32C360.084 122.022 361.546 121.165 363.139 120.885C364.731 120.606 366.362 120.92 367.774 121.778C369.028 122.66 370.22 123.645 371.339 124.724C372.24 125.647 373.209 126.484 374.236 127.229C375.011 127.761 375.908 128.037 376.822 128.024C377.525 128.057 378.225 127.906 378.865 127.583C379.505 127.26 380.066 126.776 380.503 126.168C381.486 124.724 382.012 122.965 382.001 121.16H384.247C384.278 123.732 383.507 126.238 382.063 128.26C381.426 129.079 380.629 129.73 379.733 130.165C378.837 130.601 377.863 130.808 376.884 130.774C375.64 130.808 374.412 130.462 373.336 129.772Z" fill="#151515"></path>
<path d="M316.285 129.772C315.027 128.897 313.835 127.912 312.72 126.826C311.818 125.905 310.849 125.067 309.823 124.322C309.048 123.79 308.151 123.513 307.238 123.526C306.528 123.501 305.823 123.659 305.179 123.988C304.535 124.317 303.97 124.808 303.529 125.422C302.532 126.875 301.993 128.647 301.996 130.469H299.821C299.75 127.888 300.497 125.361 301.934 123.32C303.034 122.022 304.496 121.165 306.088 120.885C307.68 120.606 309.311 120.92 310.723 121.778C311.977 122.66 313.169 123.645 314.289 124.724C315.189 125.647 316.158 126.484 317.186 127.229C317.961 127.761 318.858 128.037 319.771 128.024C320.474 128.057 321.174 127.906 321.814 127.583C322.454 127.26 323.015 126.776 323.452 126.168C324.436 124.724 324.962 122.965 324.95 121.16H327.196C327.228 123.732 326.457 126.238 325.012 128.26C324.375 129.079 323.579 129.73 322.682 130.165C321.786 130.601 320.812 130.808 319.833 130.774C318.589 130.808 317.361 130.462 316.285 129.772Z" fill="#151515"></path>
<path d="M259.235 129.772C257.976 128.897 256.784 127.912 255.669 126.826C254.768 125.905 253.799 125.067 252.772 124.322C251.997 123.79 251.1 123.513 250.187 123.526C249.477 123.501 248.772 123.659 248.128 123.988C247.484 124.317 246.919 124.808 246.479 125.422C245.481 126.875 244.943 128.647 244.945 130.469H242.77C242.699 127.888 243.446 125.361 244.883 123.32C245.983 122.022 247.445 121.165 249.037 120.885C250.629 120.606 252.261 120.92 253.672 121.778C254.926 122.66 256.118 123.645 257.238 124.724C258.139 125.647 259.108 126.484 260.135 127.229C260.91 127.761 261.807 128.037 262.72 128.024C263.423 128.057 264.123 127.906 264.763 127.583C265.403 127.26 265.964 126.776 266.402 126.168C267.385 124.724 267.911 122.965 267.899 121.16H270.145C270.177 123.732 269.406 126.238 267.962 128.26C267.324 129.079 266.528 129.73 265.631 130.165C264.735 130.601 263.761 130.808 262.782 130.774C261.538 130.808 260.31 130.462 259.235 129.772Z" fill="#151515"></path>
<path d="M202.184 129.772C200.925 128.897 199.733 127.912 198.618 126.826C197.717 125.905 196.748 125.067 195.721 124.322C194.946 123.79 194.049 123.513 193.136 123.526C192.426 123.501 191.721 123.659 191.077 123.988C190.433 124.317 189.868 124.808 189.428 125.422C188.43 126.875 187.892 128.647 187.894 130.469H185.719C185.649 127.888 186.396 125.361 187.832 123.32C188.932 122.022 190.394 121.165 191.986 120.885C193.578 120.606 195.21 120.92 196.621 121.778C197.876 122.66 199.068 123.645 200.187 124.724C201.088 125.647 202.057 126.484 203.084 127.229C203.859 127.761 204.756 128.037 205.669 128.024C206.372 128.057 207.073 127.906 207.712 127.583C208.352 127.26 208.914 126.776 209.351 126.168C210.334 124.724 210.86 122.965 210.848 121.16H213.095C213.126 123.732 212.355 126.238 210.911 128.26C210.273 129.079 209.477 129.73 208.581 130.165C207.684 130.601 206.711 130.808 205.732 130.774C204.488 130.808 203.259 130.462 202.184 129.772Z" fill="#151515"></path>
<path d="M145.133 129.772C143.875 128.897 142.682 127.912 141.567 126.826C140.666 125.905 139.697 125.067 138.67 124.322C137.895 123.79 136.998 123.513 136.085 123.526C135.376 123.501 134.67 123.659 134.026 123.988C133.382 124.317 132.817 124.808 132.377 125.422C131.38 126.875 130.841 128.647 130.844 130.469H128.669C128.598 127.888 129.345 125.361 130.781 123.32C131.881 122.022 133.343 121.165 134.935 120.885C136.528 120.606 138.159 120.92 139.571 121.778C140.825 122.66 142.017 123.645 143.136 124.724C144.037 125.647 145.006 126.484 146.033 127.229C146.808 127.761 147.705 128.037 148.618 128.024C149.322 128.057 150.022 127.906 150.662 127.583C151.301 127.26 151.863 126.776 152.3 126.168C153.283 124.724 153.809 122.965 153.797 121.16H156.044C156.075 123.732 155.304 126.238 153.86 128.26C153.223 129.079 152.426 129.73 151.53 130.165C150.634 130.601 149.66 130.808 148.681 130.774C147.437 130.808 146.208 130.462 145.133 129.772Z" fill="#151515"></path>
<path d="M88.0842 129.772C86.8258 128.897 85.6334 127.912 84.5186 126.826C83.6172 125.905 82.6482 125.067 81.6215 124.322C80.8467 123.79 79.9494 123.513 79.0364 123.526C78.3267 123.501 77.6216 123.659 76.9776 123.988C76.3335 124.317 75.7686 124.808 75.3282 125.422C74.3308 126.875 73.7922 128.647 73.7948 130.469H71.6199C71.549 127.888 72.2959 125.361 73.7325 123.32C74.8324 122.022 76.2944 121.165 77.8866 120.885C79.4789 120.606 81.1102 120.92 82.5218 121.778C83.7761 122.66 84.968 123.645 86.0875 124.724C86.9882 125.647 87.9573 126.484 88.9846 127.229C89.7594 127.761 90.6566 128.037 91.5697 128.024C92.2728 128.057 92.9729 127.906 93.6128 127.583C94.2527 127.26 94.8141 126.776 95.2512 126.168C96.2344 124.724 96.7604 122.965 96.7487 121.16H98.9951C99.0265 123.732 98.2556 126.238 96.8112 128.26C96.1738 129.079 95.3775 129.73 94.4811 130.165C93.5847 130.601 92.6111 130.808 91.632 130.774C90.388 130.808 89.1597 130.462 88.0842 129.772Z" fill="#151515"></path>
<path d="M444.645 89.5092C443.386 88.6343 442.194 87.6491 441.079 86.5632C440.178 85.6419 439.209 84.8043 438.182 84.0591C437.407 83.5268 436.51 83.2508 435.597 83.2637C434.887 83.238 434.182 83.3961 433.538 83.7252C432.894 84.0544 432.329 84.5455 431.889 85.159C430.891 86.6121 430.353 88.3847 430.355 90.2064H428.18C428.11 87.6255 428.856 85.0978 430.293 83.0575C431.393 81.7589 432.855 80.9019 434.447 80.6227C436.039 80.3434 437.671 80.6577 439.082 81.5158C440.337 82.3974 441.528 83.3822 442.648 84.4617C443.549 85.3838 444.518 86.2214 445.545 86.9658C446.32 87.4981 447.217 87.7742 448.13 87.7613C448.833 87.794 449.533 87.6429 450.173 87.3203C450.813 86.9978 451.375 86.5128 451.812 85.9053C452.795 84.4613 453.321 82.702 453.309 80.8971H455.556C455.587 83.4694 454.816 85.9756 453.372 87.9969C452.734 88.8163 451.938 89.4676 451.042 89.9027C450.145 90.3378 449.172 90.5456 448.192 90.5108C446.948 90.5457 445.72 90.1989 444.645 89.5092Z" fill="#151515"></path>
<path d="M387.594 89.5092C386.336 88.6343 385.143 87.6491 384.028 86.5632C383.127 85.6419 382.158 84.8043 381.131 84.0591C380.356 83.5268 379.459 83.2508 378.546 83.2637C377.836 83.238 377.131 83.3961 376.487 83.7252C375.843 84.0544 375.278 84.5455 374.838 85.159C373.841 86.6121 373.302 88.3847 373.305 90.2064H371.13C371.059 87.6255 371.806 85.0978 373.242 83.0575C374.342 81.7589 375.804 80.9019 377.396 80.6227C378.989 80.3434 380.62 80.6577 382.032 81.5158C383.286 82.3974 384.478 83.3822 385.597 84.4617C386.498 85.3838 387.467 86.2214 388.494 86.9658C389.269 87.4981 390.166 87.7742 391.079 87.7613C391.782 87.794 392.483 87.6429 393.123 87.3203C393.762 86.9978 394.324 86.5128 394.761 85.9053C395.744 84.4613 396.27 82.702 396.258 80.8971H398.505C398.536 83.4694 397.765 85.9756 396.321 87.9969C395.684 88.8163 394.887 89.4676 393.991 89.9027C393.094 90.3378 392.121 90.5456 391.142 90.5108C389.898 90.5457 388.669 90.1989 387.594 89.5092Z" fill="#151515"></path>
<path d="M330.545 89.5092C329.287 88.6343 328.094 87.6491 326.979 86.5632C326.078 85.6419 325.109 84.8043 324.082 84.0591C323.308 83.5268 322.41 83.2508 321.497 83.2637C320.788 83.238 320.083 83.3961 319.439 83.7252C318.794 84.0544 318.229 84.5455 317.789 85.159C316.792 86.6121 316.253 88.3847 316.256 90.2064H314.081C314.01 87.6255 314.757 85.0978 316.193 83.0575C317.293 81.7589 318.755 80.9019 320.348 80.6227C321.94 80.3434 323.571 80.6577 324.983 81.5158C326.237 82.3974 327.429 83.3822 328.548 84.4617C329.449 85.3838 330.418 86.2214 331.445 86.9658C332.22 87.4981 333.118 87.7742 334.031 87.7613C334.734 87.794 335.434 87.6429 336.074 87.3203C336.714 86.9978 337.275 86.5128 337.712 85.9053C338.695 84.4613 339.221 82.702 339.21 80.8971H341.456C341.487 83.4694 340.716 85.9756 339.272 87.9969C338.635 88.8163 337.838 89.4676 336.942 89.9027C336.046 90.3378 335.072 90.5456 334.093 90.5108C332.849 90.5457 331.621 90.1989 330.545 89.5092Z" fill="#151515"></path>
<path d="M273.494 89.5092C272.236 88.6343 271.044 87.6491 269.929 86.5632C269.027 85.6419 268.058 84.8043 267.032 84.0591C266.257 83.5268 265.36 83.2508 264.447 83.2637C263.737 83.238 263.032 83.3961 262.388 83.7252C261.744 84.0544 261.179 84.5455 260.738 85.159C259.741 86.6121 259.202 88.3847 259.205 90.2064H257.03C256.959 87.6255 257.706 85.0978 259.143 83.0575C260.243 81.7589 261.705 80.9019 263.297 80.6227C264.889 80.3434 266.52 80.6577 267.932 81.5158C269.186 82.3974 270.378 83.3822 271.498 84.4617C272.398 85.3838 273.367 86.2214 274.395 86.9658C275.17 87.4981 276.067 87.7742 276.98 87.7613C277.683 87.794 278.383 87.6429 279.023 87.3203C279.663 86.9978 280.224 86.5128 280.661 85.9053C281.645 84.4613 282.171 82.702 282.159 80.8971H284.405C284.437 83.4694 283.666 85.9756 282.221 87.9969C281.584 88.8163 280.788 89.4676 279.891 89.9027C278.995 90.3378 278.021 90.5456 277.042 90.5108C275.798 90.5457 274.57 90.1989 273.494 89.5092Z" fill="#151515"></path>
<path d="M216.444 89.5092C215.185 88.6343 213.993 87.6491 212.878 86.5632C211.977 85.6419 211.008 84.8043 209.981 84.0591C209.206 83.5268 208.309 83.2508 207.396 83.2637C206.686 83.238 205.981 83.3961 205.337 83.7252C204.693 84.0544 204.128 84.5455 203.688 85.159C202.69 86.6121 202.152 88.3847 202.154 90.2064H199.979C199.908 87.6255 200.655 85.0978 202.092 83.0575C203.192 81.7589 204.654 80.9019 206.246 80.6227C207.838 80.3434 209.47 80.6577 210.881 81.5158C212.135 82.3974 213.327 83.3822 214.447 84.4617C215.348 85.3838 216.317 86.2214 217.344 86.9658C218.119 87.4981 219.016 87.7742 219.929 87.7613C220.632 87.794 221.332 87.6429 221.972 87.3203C222.612 86.9978 223.173 86.5128 223.611 85.9053C224.594 84.4613 225.12 82.702 225.108 80.8971H227.354C227.386 83.4694 226.615 85.9756 225.171 87.9969C224.533 88.8163 223.737 89.4676 222.84 89.9027C221.944 90.3378 220.97 90.5456 219.991 90.5108C218.747 90.5457 217.519 90.1989 216.444 89.5092Z" fill="#151515"></path>
<path d="M159.395 89.5092C158.136 88.6343 156.944 87.6491 155.829 86.5632C154.928 85.6419 153.959 84.8043 152.932 84.0591C152.157 83.5268 151.26 83.2508 150.347 83.2637C149.637 83.238 148.932 83.3961 148.288 83.7252C147.644 84.0544 147.079 84.5455 146.639 85.159C145.641 86.6121 145.103 88.3847 145.105 90.2064H142.93C142.86 87.6255 143.606 85.0978 145.043 83.0575C146.143 81.7589 147.605 80.9019 149.197 80.6227C150.789 80.3434 152.421 80.6577 153.832 81.5158C155.087 82.3974 156.279 83.3822 157.398 84.4617C158.299 85.3838 159.268 86.2214 160.295 86.9658C161.07 87.4981 161.967 87.7742 162.88 87.7613C163.583 87.794 164.283 87.6429 164.923 87.3203C165.563 86.9978 166.125 86.5128 166.562 85.9053C167.545 84.4613 168.071 82.702 168.059 80.8971H170.306C170.337 83.4694 169.566 85.9756 168.122 87.9969C167.484 88.8163 166.688 89.4676 165.792 89.9027C164.895 90.3378 163.922 90.5456 162.943 90.5108C161.699 90.5457 160.47 90.1989 159.395 89.5092Z" fill="#151515"></path>
<path d="M102.342 89.5092C101.084 88.6343 99.8912 87.6491 98.7764 86.5632C97.875 85.6419 96.906 84.8043 95.8793 84.0591C95.1045 83.5268 94.2072 83.2508 93.2942 83.2637C92.5845 83.238 91.8794 83.3961 91.2354 83.7252C90.5913 84.0544 90.0264 84.5455 89.586 85.159C88.5886 86.6121 88.05 88.3847 88.0527 90.2064H85.8777C85.8068 87.6255 86.5538 85.0978 87.9903 83.0575C89.0902 81.7589 90.5522 80.9019 92.1444 80.6227C93.7366 80.3434 95.368 80.6577 96.7796 81.5158C98.0338 82.3974 99.2258 83.3822 100.345 84.4617C101.246 85.3838 102.215 86.2214 103.242 86.9658C104.017 87.4981 104.914 87.7742 105.827 87.7613C106.531 87.794 107.231 87.6429 107.871 87.3203C108.51 86.9978 109.072 86.5128 109.509 85.9053C110.492 84.4613 111.018 82.702 111.006 80.8971H113.253C113.284 83.4694 112.513 85.9756 111.069 87.9969C110.432 88.8163 109.635 89.4676 108.739 89.9027C107.843 90.3378 106.869 90.5456 105.89 90.5108C104.646 90.5457 103.417 90.1989 102.342 89.5092Z" fill="#151515"></path>
<path d="M458.91 49.2476C457.652 48.3726 456.46 47.3874 455.345 46.3016C454.443 45.3803 453.474 44.5427 452.448 43.7975C451.673 43.2651 450.776 42.9891 449.863 43.002C449.153 42.9763 448.448 43.1344 447.804 43.4635C447.16 43.7927 446.595 44.2838 446.154 44.8973C445.157 46.3504 444.618 48.1231 444.621 49.9448H442.446C442.375 47.3638 443.122 44.8362 444.559 42.7958C445.659 41.4972 447.121 40.6402 448.713 40.3609C450.305 40.0816 451.936 40.396 453.348 41.2541C454.602 42.1357 455.794 43.1205 456.914 44.2001C457.814 45.1222 458.783 45.9598 459.811 46.7042C460.586 47.2365 461.483 47.5126 462.396 47.4996C463.099 47.5324 463.799 47.3813 464.439 47.0587C465.079 46.7361 465.64 46.2512 466.077 45.6436C467.061 44.1997 467.587 42.4404 467.575 40.6354H469.821C469.853 43.2077 469.082 45.7139 467.637 47.7353C467 48.5547 466.204 49.206 465.307 49.6411C464.411 50.0762 463.437 50.284 462.458 50.2492C461.214 50.2841 459.986 49.9373 458.91 49.2476Z" fill="#151515"></path>
<path d="M401.86 49.2476C400.601 48.3726 399.409 47.3874 398.294 46.3016C397.393 45.3803 396.424 44.5427 395.397 43.7975C394.622 43.2651 393.725 42.9891 392.812 43.002C392.102 42.9763 391.397 43.1344 390.753 43.4635C390.109 43.7927 389.544 44.2838 389.104 44.8973C388.106 46.3504 387.568 48.1231 387.57 49.9448H385.395C385.324 47.3638 386.071 44.8362 387.508 42.7958C388.608 41.4972 390.07 40.6402 391.662 40.3609C393.254 40.0816 394.886 40.396 396.297 41.2541C397.551 42.1357 398.743 43.1205 399.863 44.2001C400.764 45.1222 401.733 45.9598 402.76 46.7042C403.535 47.2365 404.432 47.5126 405.345 47.4996C406.048 47.5324 406.748 47.3813 407.388 47.0587C408.028 46.7361 408.589 46.2512 409.027 45.6436C410.01 44.1997 410.536 42.4404 410.524 40.6354H412.77C412.802 43.2077 412.031 45.7139 410.586 47.7353C409.949 48.5547 409.153 49.206 408.256 49.6411C407.36 50.0762 406.386 50.284 405.407 50.2492C404.163 50.2841 402.935 49.9373 401.86 49.2476Z" fill="#151515"></path>
<path d="M344.811 49.2476C343.552 48.3726 342.36 47.3874 341.245 46.3016C340.344 45.3803 339.375 44.5427 338.348 43.7975C337.573 43.2651 336.676 42.9891 335.763 43.002C335.053 42.9763 334.348 43.1344 333.704 43.4635C333.06 43.7927 332.495 44.2838 332.055 44.8973C331.057 46.3504 330.519 48.1231 330.521 49.9448H328.346C328.276 47.3638 329.023 44.8362 330.459 42.7958C331.559 41.4972 333.021 40.6402 334.613 40.3609C336.205 40.0816 337.837 40.396 339.248 41.2541C340.503 42.1357 341.695 43.1205 342.814 44.2001C343.715 45.1222 344.684 45.9598 345.711 46.7042C346.486 47.2365 347.383 47.5126 348.296 47.4996C348.999 47.5324 349.699 47.3813 350.339 47.0587C350.979 46.7361 351.541 46.2512 351.978 45.6436C352.961 44.1997 353.487 42.4404 353.475 40.6354H355.722C355.753 43.2077 354.982 45.7139 353.538 47.7353C352.9 48.5547 352.104 49.206 351.208 49.6411C350.311 50.0762 349.338 50.284 348.359 50.2492C347.115 50.2841 345.886 49.9373 344.811 49.2476Z" fill="#151515"></path>
<path d="M287.76 49.2476C286.502 48.3726 285.309 47.3874 284.194 46.3016C283.293 45.3803 282.324 44.5427 281.297 43.7975C280.522 43.2651 279.625 42.9891 278.712 43.002C278.002 42.9763 277.297 43.1344 276.653 43.4635C276.009 43.7927 275.444 44.2838 275.004 44.8973C274.007 46.3504 273.468 48.1231 273.471 49.9448H271.296C271.225 47.3638 271.972 44.8362 273.408 42.7958C274.508 41.4972 275.97 40.6402 277.562 40.3609C279.155 40.0816 280.786 40.396 282.198 41.2541C283.452 42.1357 284.644 43.1205 285.763 44.2001C286.664 45.1222 287.633 45.9598 288.66 46.7042C289.435 47.2365 290.332 47.5126 291.245 47.4996C291.948 47.5324 292.649 47.3813 293.288 47.0587C293.928 46.7361 294.49 46.2512 294.927 45.6436C295.91 44.1997 296.436 42.4404 296.424 40.6354H298.671C298.702 43.2077 297.931 45.7139 296.487 47.7353C295.849 48.5547 295.053 49.206 294.157 49.6411C293.26 50.0762 292.287 50.284 291.308 50.2492C290.064 50.2841 288.835 49.9373 287.76 49.2476Z" fill="#151515"></path>
<path d="M230.711 49.2476C229.453 48.3726 228.26 47.3874 227.146 46.3016C226.244 45.3803 225.275 44.5427 224.248 43.7975C223.474 43.2651 222.576 42.9891 221.663 43.002C220.954 42.9763 220.249 43.1344 219.605 43.4635C218.96 43.7927 218.396 44.2838 217.955 44.8973C216.958 46.3504 216.419 48.1231 216.422 49.9448H214.247C214.176 47.3638 214.923 44.8362 216.359 42.7958C217.459 41.4972 218.921 40.6402 220.514 40.3609C222.106 40.0816 223.737 40.396 225.149 41.2541C226.403 42.1357 227.595 43.1205 228.714 44.2001C229.615 45.1222 230.584 45.9598 231.611 46.7042C232.386 47.2365 233.284 47.5126 234.197 47.4996C234.9 47.5324 235.6 47.3813 236.24 47.0587C236.88 46.7361 237.441 46.2512 237.878 45.6436C238.861 44.1997 239.387 42.4404 239.376 40.6354H241.622C241.653 43.2077 240.883 45.7139 239.438 47.7353C238.801 48.5547 238.004 49.206 237.108 49.6411C236.212 50.0762 235.238 50.284 234.259 50.2492C233.015 50.2841 231.787 49.9373 230.711 49.2476Z" fill="#151515"></path>
<path d="M173.658 49.2476C172.4 48.3726 171.208 47.3874 170.093 46.3016C169.191 45.3803 168.222 44.5427 167.196 43.7975C166.421 43.2651 165.524 42.9891 164.611 43.002C163.901 42.9763 163.196 43.1344 162.552 43.4635C161.908 43.7927 161.343 44.2838 160.902 44.8973C159.905 46.3504 159.366 48.1231 159.369 49.9448H157.194C157.123 47.3638 157.87 44.8362 159.307 42.7958C160.407 41.4972 161.869 40.6402 163.461 40.3609C165.053 40.0816 166.684 40.396 168.096 41.2541C169.35 42.1357 170.542 43.1205 171.662 44.2001C172.562 45.1222 173.531 45.9598 174.559 46.7042C175.334 47.2365 176.231 47.5126 177.144 47.4996C177.847 47.5324 178.547 47.3813 179.187 47.0587C179.827 46.7361 180.388 46.2512 180.825 45.6436C181.809 44.1997 182.335 42.4404 182.323 40.6354H184.569C184.601 43.2077 183.83 45.7139 182.385 47.7353C181.748 48.5547 180.952 49.206 180.055 49.6411C179.159 50.0762 178.185 50.284 177.206 50.2492C175.962 50.2841 174.734 49.9373 173.658 49.2476Z" fill="#151515"></path>
<path d="M116.61 49.2476C115.351 48.3726 114.159 47.3874 113.044 46.3016C112.143 45.3803 111.174 44.5427 110.147 43.7975C109.372 43.2651 108.475 42.9891 107.562 43.002C106.852 42.9763 106.147 43.1344 105.503 43.4635C104.859 43.7927 104.294 44.2838 103.854 44.8973C102.856 46.3504 102.318 48.1231 102.32 49.9448H100.145C100.074 47.3638 100.821 44.8362 102.258 42.7958C103.358 41.4972 104.82 40.6402 106.412 40.3609C108.004 40.0816 109.636 40.396 111.047 41.2541C112.301 42.1357 113.493 43.1205 114.613 44.2001C115.514 45.1222 116.483 45.9598 117.51 46.7042C118.285 47.2365 119.182 47.5126 120.095 47.4996C120.798 47.5324 121.498 47.3813 122.138 47.0587C122.778 46.7361 123.339 46.2512 123.777 45.6436C124.76 44.1997 125.286 42.4404 125.274 40.6354H127.52C127.552 43.2077 126.781 45.7139 125.337 47.7353C124.699 48.5547 123.903 49.206 123.006 49.6411C122.11 50.0762 121.136 50.284 120.157 50.2492C118.913 50.2841 117.685 49.9373 116.61 49.2476Z" fill="#151515"></path>
<path d="M473.17 8.98588C471.912 8.11092 470.719 7.12573 469.605 6.03986C468.703 5.11854 467.734 4.28098 466.707 3.53574C465.933 3.00343 465.035 2.72736 464.122 2.74032C463.413 2.71458 462.708 2.87265 462.064 3.20182C461.419 3.53099 460.855 4.02209 460.414 4.63559C459.417 6.0887 458.878 7.86137 458.881 9.68311H456.706C456.635 7.10213 457.382 4.57446 458.818 2.53409C459.918 1.23544 461.38 0.37851 462.973 0.0992143C464.565 -0.180082 466.196 0.134245 467.608 0.992342C468.862 1.87397 470.054 2.85878 471.173 3.93836C472.074 4.86044 473.043 5.69806 474.071 6.44248C474.845 6.97479 475.743 7.25087 476.656 7.23791C477.359 7.27068 478.059 7.11959 478.699 6.797C479.339 6.4744 479.9 5.98948 480.337 5.38191C481.32 3.93796 481.846 2.17863 481.835 0.373681H484.081C484.113 2.94598 483.342 5.45223 481.897 7.47359C481.26 8.29298 480.464 8.94426 479.567 9.37936C478.671 9.81447 477.697 10.0223 476.718 9.98753C475.474 10.0224 474.246 9.6756 473.17 8.98588Z" fill="#151515"></path>
<path d="M416.119 8.98588C414.861 8.11092 413.668 7.12573 412.554 6.03986C411.652 5.11854 410.683 4.28098 409.657 3.53574C408.882 3.00343 407.985 2.72736 407.071 2.74032C406.362 2.71458 405.657 2.87265 405.013 3.20182C404.369 3.53099 403.804 4.02209 403.363 4.63559C402.366 6.0887 401.827 7.86137 401.83 9.68311H399.655C399.584 7.10213 400.331 4.57446 401.768 2.53409C402.868 1.23544 404.33 0.37851 405.922 0.0992143C407.514 -0.180082 409.145 0.134245 410.557 0.992342C411.811 1.87397 413.003 2.85878 414.123 3.93836C415.023 4.86044 415.992 5.69806 417.02 6.44248C417.794 6.97479 418.692 7.25087 419.605 7.23791C420.308 7.27068 421.008 7.11959 421.648 6.797C422.288 6.4744 422.849 5.98948 423.286 5.38191C424.269 3.93796 424.795 2.17863 424.784 0.373681H427.03C427.061 2.94598 426.291 5.45223 424.846 7.47359C424.209 8.29298 423.413 8.94426 422.516 9.37936C421.62 9.81447 420.646 10.0223 419.667 9.98753C418.423 10.0224 417.195 9.6756 416.119 8.98588Z" fill="#151515"></path>
<path d="M359.069 8.98588C357.81 8.11092 356.618 7.12573 355.503 6.03986C354.602 5.11854 353.633 4.28098 352.606 3.53574C351.831 3.00343 350.934 2.72736 350.021 2.74032C349.311 2.71458 348.606 2.87265 347.962 3.20182C347.318 3.53099 346.753 4.02209 346.313 4.63559C345.315 6.0887 344.777 7.86137 344.779 9.68311H342.604C342.533 7.10213 343.28 4.57446 344.717 2.53409C345.817 1.23544 347.279 0.37851 348.871 0.0992143C350.463 -0.180082 352.095 0.134245 353.506 0.992342C354.76 1.87397 355.952 2.85878 357.072 3.93836C357.973 4.86044 358.942 5.69806 359.969 6.44248C360.744 6.97479 361.641 7.25087 362.554 7.23791C363.257 7.27068 363.957 7.11959 364.597 6.797C365.237 6.4744 365.799 5.98948 366.236 5.38191C367.219 3.93796 367.745 2.17863 367.733 0.373681H369.98C370.011 2.94598 369.24 5.45223 367.796 7.47359C367.158 8.29298 366.362 8.94426 365.466 9.37936C364.569 9.81447 363.595 10.0223 362.616 9.98753C361.372 10.0224 360.144 9.6756 359.069 8.98588Z" fill="#151515"></path>
<path d="M302.02 8.98588C300.761 8.11092 299.569 7.12573 298.454 6.03986C297.553 5.11854 296.584 4.28098 295.557 3.53574C294.782 3.00343 293.885 2.72736 292.972 2.74032C292.262 2.71458 291.557 2.87265 290.913 3.20182C290.269 3.53099 289.704 4.02209 289.264 4.63559C288.266 6.0887 287.728 7.86137 287.73 9.68311H285.555C285.485 7.10213 286.231 4.57446 287.668 2.53409C288.768 1.23544 290.23 0.37851 291.822 0.0992143C293.414 -0.180082 295.046 0.134245 296.457 0.992342C297.712 1.87397 298.904 2.85878 300.023 3.93836C300.924 4.86044 301.893 5.69806 302.92 6.44248C303.695 6.97479 304.592 7.25087 305.505 7.23791C306.208 7.27068 306.908 7.11959 307.548 6.797C308.188 6.4744 308.75 5.98948 309.187 5.38191C310.17 3.93796 310.696 2.17863 310.684 0.373681H312.931C312.962 2.94598 312.191 5.45223 310.747 7.47359C310.109 8.29298 309.313 8.94426 308.417 9.37936C307.52 9.81447 306.547 10.0223 305.568 9.98753C304.324 10.0224 303.095 9.6756 302.02 8.98588Z" fill="#151515"></path>
<path d="M244.969 8.98588C243.711 8.11092 242.518 7.12573 241.403 6.03986C240.502 5.11854 239.533 4.28098 238.506 3.53574C237.731 3.00343 236.834 2.72736 235.921 2.74032C235.212 2.71458 234.506 2.87265 233.862 3.20182C233.218 3.53099 232.653 4.02209 232.213 4.63559C231.216 6.0887 230.677 7.86137 230.68 9.68311H228.505C228.434 7.10213 229.181 4.57446 230.617 2.53409C231.717 1.23544 233.179 0.37851 234.771 0.0992143C236.364 -0.180082 237.995 0.134245 239.407 0.992342C240.661 1.87397 241.853 2.85878 242.972 3.93836C243.873 4.86044 244.842 5.69806 245.869 6.44248C246.644 6.97479 247.541 7.25087 248.454 7.23791C249.158 7.27068 249.858 7.11959 250.498 6.797C251.137 6.4744 251.699 5.98948 252.136 5.38191C253.119 3.93796 253.645 2.17863 253.633 0.373681H255.88C255.911 2.94598 255.14 5.45223 253.696 7.47359C253.059 8.29298 252.262 8.94426 251.366 9.37936C250.469 9.81447 249.496 10.0223 248.517 9.98753C247.273 10.0224 246.044 9.6756 244.969 8.98588Z" fill="#151515"></path>
<path d="M187.92 8.98588C186.662 8.11092 185.469 7.12573 184.354 6.03986C183.453 5.11854 182.484 4.28098 181.457 3.53574C180.683 3.00343 179.785 2.72736 178.872 2.74032C178.163 2.71458 177.458 2.87265 176.814 3.20182C176.169 3.53099 175.604 4.02209 175.164 4.63559C174.167 6.0887 173.628 7.86137 173.631 9.68311H171.456C171.385 7.10213 172.132 4.57446 173.568 2.53409C174.668 1.23544 176.13 0.37851 177.723 0.0992143C179.315 -0.180082 180.946 0.134245 182.358 0.992342C183.612 1.87397 184.804 2.85878 185.923 3.93836C186.824 4.86044 187.793 5.69806 188.82 6.44248C189.595 6.97479 190.493 7.25087 191.406 7.23791C192.109 7.27068 192.809 7.11959 193.449 6.797C194.089 6.4744 194.65 5.98948 195.087 5.38191C196.07 3.93796 196.596 2.17863 196.585 0.373681H198.831C198.862 2.94598 198.092 5.45223 196.647 7.47359C196.01 8.29298 195.213 8.94426 194.317 9.37936C193.421 9.81447 192.447 10.0223 191.468 9.98753C190.224 10.0224 188.996 9.6756 187.92 8.98588Z" fill="#151515"></path>
<path d="M130.869 8.98588C129.611 8.11092 128.419 7.12573 127.304 6.03986C126.402 5.11854 125.433 4.28098 124.407 3.53574C123.632 3.00343 122.735 2.72736 121.821 2.74032C121.112 2.71458 120.407 2.87265 119.763 3.20182C119.119 3.53099 118.554 4.02209 118.113 4.63559C117.116 6.0887 116.577 7.86137 116.58 9.68311H114.405C114.334 7.10213 115.081 4.57446 116.518 2.53409C117.618 1.23544 119.08 0.37851 120.672 0.0992143C122.264 -0.180082 123.895 0.134245 125.307 0.992342C126.561 1.87397 127.753 2.85878 128.873 3.93836C129.773 4.86044 130.742 5.69806 131.77 6.44248C132.544 6.97479 133.442 7.25087 134.355 7.23791C135.058 7.27068 135.758 7.11959 136.398 6.797C137.038 6.4744 137.599 5.98948 138.036 5.38191C139.019 3.93796 139.545 2.17863 139.534 0.373681H141.78C141.812 2.94598 141.041 5.45223 139.596 7.47359C138.959 8.29298 138.163 8.94426 137.266 9.37936C136.37 9.81447 135.396 10.0223 134.417 9.98753C133.173 10.0224 131.945 9.6756 130.869 8.98588Z" fill="#151515"></path>
</svg>