<svg xmlns="http://www.w3.org/2000/svg" xmlns:xlink="http://www.w3.org/1999/xlink" width="154" height="128" viewBox="0 0 154 128">
    <defs>
        <path id="b" d="M113.108 54.031c0 9.656-5.643 17.997-13.817 21.919l2.236 9.096a4.772 4.772 0 0 1-2.336 5.319A9.804 9.804 0 0 1 87.05 88.19l-3.545-4.1a21.712 21.712 0 0 1-12.996 4.294 21.725 21.725 0 0 1-14.711-5.71 20.3 20.3 0 0 1-12.978 4.664c-6.596 0-12.443-3.144-16.164-7.997-.912.153-1.842.251-2.796.251-9.293 0-16.825-7.518-16.825-16.792 0-1.544.225-3.032.616-4.452C2.992 54.63 0 48.916 0 42.5c0-10.074 7.36-18.41 16.999-20.006 1.507-8.058 8.578-14.162 17.09-14.162 2.82 0 5.477.686 7.832 1.874C45.86 4.071 52.744 0 60.586 0 70.47 0 78.84 6.463 81.693 15.386a15.95 15.95 0 0 1 7.06-1.653c8.85 0 16.024 7.16 16.024 15.992a15.9 15.9 0 0 1-.906 5.257c5.625 4.453 9.237 11.328 9.237 19.05z"/>
        <filter id="a" width="141.6%" height="151.3%" x="-20.8%" y="-23.5%" filterUnits="objectBoundingBox">
            <feOffset dy="2" in="SourceAlpha" result="shadowOffsetOuter1"/>
            <feGaussianBlur in="shadowOffsetOuter1" result="shadowBlurOuter1" stdDeviation="7.5"/>
            <feColorMatrix in="shadowBlurOuter1" values="0 0 0 0 0.436226223 0 0 0 0 0.436226223 0 0 0 0 0.436226223 0 0 0 0.131228147 0"/>
        </filter>
    </defs>
    <g fill="none" fill-rule="evenodd">
        <path fill="#E8E8E8" d="M19.85 58.607c13.308-15.722 28.67-2.786 54.823-16.404 26.154-13.619 19.438-21.857 35.246-27.376C125.727 9.308 154 18.28 154 50.924c0 32.644-21.414 59.076-48.069 70.083-26.654 11.008-67.778 7.876-83.583-7.086C6.542 98.959 6.542 74.329 19.85 58.607z" opacity=".582"/>
        <g transform="translate(15 13)">
            <use fill="#000" filter="url(#a)" xlink:href="#b"/>
            <use fill="#FFF" xlink:href="#b"/>
        </g>
        <path fill="#C4C4C4" d="M60.581 60.38v49.12a.5.5 0 0 0 1 0V60.38a.978.978 0 0 0-.514-.863l-29.33-15.62-.499.92L60.581 60.38z"/>
        <path fill="#C4C4C4" d="M39.297 66.158a.986.986 0 0 0 .69.286H54.34v21.315h.977V66.444a.976.976 0 0 0-.977-.975H39.987l-8.391-8.488-.731.758 8.432 8.42zM67.82 72.434h1.027v-42.8h-1.026zM89.179 88.078c.26 0 .514-.1.697-.279a.942.942 0 0 0 .29-.674V60.098h-.987v27.027h-11.84v1.008l11.84-.055zM90.071 35.46h30.648a.483.483 0 1 0 0-.967H90.07a.978.978 0 0 0-.687.283.964.964 0 0 0-.285.683v10.435h.972V35.459zM99.67 69.22l8.093-14.745-.862-.498-8.354 14.917a.953.953 0 0 0-.118.46v15.228h1.24V69.219zM121.302 66.317h16.232a.466.466 0 1 0 0-.932h-16.232c-.26 0-.516.102-.7.28l-7.706 7.55.747.527 7.659-7.425zM18.734 76.171h21.463v-1.12H18.734a.56.56 0 0 0 0 1.12zM52.703 40.474h1.12V13.56a.56.56 0 0 0-1.12 0v26.914z"/>
        <path fill="#C4C4C4" d="M80.24 26.161h18.264a.487.487 0 0 0 0-.975l-18.286-.072a.992.992 0 0 0-.696.286.974.974 0 0 0-.288.688l.023 31.394h.984v-31.32z"/>
        <path fill="#D73F30" d="M33.665 43.932a2.334 2.334 0 1 1-4.667 0 2.335 2.335 0 0 1 2.334-2.337 2.335 2.335 0 0 1 2.333 2.337M32.918 56.64a2.335 2.335 0 0 1-2.333 2.337 2.335 2.335 0 0 1-2.333-2.337 2.334 2.334 0 1 1 4.666 0M70.62 29.54a2.334 2.334 0 1 1-4.666 0 2.334 2.334 0 0 1 4.666 0M70.62 71.966a2.334 2.334 0 1 1-4.666 0 2.334 2.334 0 0 1 4.666 0M80.14 87.665a2.335 2.335 0 0 1-2.333 2.337 2.335 2.335 0 0 1-2.334-2.337 2.334 2.334 0 1 1 4.667 0M89.752 47.015a2.335 2.335 0 0 1-2.333-2.335 2.335 2.335 0 0 1 2.333-2.337 2.335 2.335 0 0 1 2.333 2.337 2.334 2.334 0 0 1-2.333 2.335zM92.085 60.379a2.334 2.334 0 1 1-4.666 0 2.335 2.335 0 0 1 2.333-2.337 2.335 2.335 0 0 1 2.333 2.337M109.816 54.211a2.335 2.335 0 0 1-2.332 2.336 2.335 2.335 0 0 1-2.334-2.336 2.335 2.335 0 0 1 2.334-2.336 2.335 2.335 0 0 1 2.332 2.336M101.417 84.488a2.334 2.334 0 1 1-4.666 0 2.334 2.334 0 0 1 4.666 0M115.976 72.901a2.334 2.334 0 0 1-4.666 0 2.335 2.335 0 0 1 2.332-2.336 2.335 2.335 0 0 1 2.334 2.336M82.006 56.453a2.335 2.335 0 0 1-2.333 2.337 2.335 2.335 0 0 1-2.333-2.337 2.334 2.334 0 1 1 4.666 0M57.182 88.413a2.335 2.335 0 0 1-2.333 2.337 2.335 2.335 0 0 1-2.333-2.337 2.334 2.334 0 1 1 4.666 0M41.877 75.704a2.334 2.334 0 0 1-2.333 2.336 2.334 2.334 0 0 1-2.333-2.336 2.334 2.334 0 0 1 2.333-2.336 2.334 2.334 0 0 1 2.333 2.336M55.502 40.007a2.335 2.335 0 0 1-2.333 2.336 2.334 2.334 0 0 1-2.333-2.336 2.335 2.335 0 0 1 2.333-2.336 2.335 2.335 0 0 1 2.333 2.336"/>
    </g>
</svg>
