<svg xmlns="http://www.w3.org/2000/svg" xmlns:xlink="http://www.w3.org/1999/xlink" viewBox="0 0 1000 1000" width="1000" height="1000" preserveAspectRatio="xMidYMid meet" style="width: 100%; height: 100%; transform: translate3d(0px, 0px, 0px); content-visibility: visible;"><defs><clipPath id="__lottie_element_2"><rect width="1000" height="1000" x="0" y="0"></rect></clipPath><g id="__lottie_element_7"><g style="display: block;" transform="matrix(41.5,0,0,41.5,-81.00000762939453,-81.00000762939453)" opacity="1"><g opacity="1" transform="matrix(1,0,0,1,14,14)"><path stroke-linecap="butt" stroke-linejoin="miter" fill-opacity="0" stroke-miterlimit="4" stroke="rgb(21,21,21)" stroke-opacity="1" stroke-width="4" d=" M-6,-10 C-6,-10 6,-10 6,-10 C8.208999633789062,-10 10,-8.208999633789062 10,-6 C10,-6 10,6 10,6 C10,8.208999633789062 8.208999633789062,10 6,10 C6,10 -6,10 -6,10 C-8.208999633789062,10 -10,8.208999633789062 -10,6 C-10,6 -10,-6 -10,-6 C-10,-8.208999633789062 -8.208999633789062,-10 -6,-10z"></path></g></g></g><mask id="__lottie_element_7_1" mask-type="alpha"><use xlink:href="#__lottie_element_7"></use></mask><clipPath id="__lottie_element_14"><path d="M0,0 L1000,0 L1000,1000 L0,1000z"></path></clipPath><g id="__lottie_element_17"><g style="display: none;"><g><path stroke-linecap="butt" stroke-linejoin="miter" fill-opacity="0" stroke-miterlimit="4"></path></g></g></g><mask id="__lottie_element_17_1" mask-type="alpha"><use xlink:href="#__lottie_element_17"></use></mask><g id="__lottie_element_23"><g clip-path="url(#__lottie_element_24)" style="display: none;"><rect width="1000" height="1000" fill="#ffffff"></rect></g></g><clipPath id="__lottie_element_24"><path fill="#ffffff" clip-rule="nonzero" d=" M594,406 C594,406 409,407 409,407 C409,407 415,592 415,592 C415,592 594,596 594,596 C594,596 594,406 594,406"></path></clipPath><mask id="__lottie_element_23_1" mask-type="alpha"><use xlink:href="#__lottie_element_23"></use></mask><filter id="__lottie_element_31"><feColorMatrix type="matrix" color-interpolation-filters="sRGB" values="1 0 0 0 0 0 1 0 0 0 0 0 1 0 0 0 0 0 1 0" result="filter_result_0"></feColorMatrix></filter><g id="__lottie_element_32"><g clip-path="url(#__lottie_element_33)" transform="matrix(4.150000095367432,0,0,4.150000095367432,-1575,-1575)" opacity="1" style="display: block;"><rect width="1000" height="1000" fill="#ffffff"></rect></g></g><clipPath id="__lottie_element_33"><path fill="#ffffff" clip-rule="nonzero" d=" M594,406 C594,406 409,407 409,407 C409,407 415,592 415,592 C415,592 594,596 594,596 C594,596 594,406 594,406" fill-opacity="1"></path></clipPath><mask id="__lottie_element_32_1" mask-type="alpha"><use xlink:href="#__lottie_element_32"></use></mask><filter id="__lottie_element_40"><feColorMatrix type="matrix" color-interpolation-filters="sRGB" values="0 0 0 0 1 0 0 0 0 0.8549020290374756 0 0 0 0 0.8666667342185974 0 0 0 1 0" result="filter_result_0"></feColorMatrix></filter></defs><g clip-path="url(#__lottie_element_2)"><g filter="url(#__lottie_element_40)" transform="matrix(41.5,0,0,41.5,-81.00000762939453,-81.00000762939453)" opacity="1" style="display: none;"><g opacity="1" transform="matrix(1,0,0,1,14,14)"><path stroke-linecap="butt" stroke-linejoin="miter" fill-opacity="0" stroke-miterlimit="4" stroke="rgb(21,21,21)" stroke-opacity="1" stroke-width="4" d=" M-6,-10 C-6,-10 6,-10 6,-10 C8.208999633789062,-10 10,-8.208999633789062 10,-6 C10,-6 10,6 10,6 C10,8.208999633789062 8.208999633789062,10 6,10 C6,10 -6,10 -6,10 C-8.208999633789062,10 -10,8.208999633789062 -10,6 C-10,6 -10,-6 -10,-6 C-10,-8.208999633789062 -8.208999633789062,-10 -6,-10z"></path></g></g><g mask="url(#__lottie_element_32_1)" style="display: block;"><g transform="matrix(3.9839999675750732,0,0,3.9839999675750732,496.0160217285156,523.9039916992188)" opacity="1"><g opacity="1" transform="matrix(1,0,0,1,1,-6)"><path fill="rgb(227,30,48)" fill-opacity="1" d=" M0,-158 C87.20020294189453,-158 158,-87.20020294189453 158,0 C158,87.20020294189453 87.20020294189453,158 0,158 C-87.20020294189453,158 -158,87.20020294189453 -158,0 C-158,-87.20020294189453 -87.20020294189453,-158 0,-158z"></path><path stroke-linecap="butt" stroke-linejoin="miter" fill-opacity="0" stroke-miterlimit="4" stroke="rgb(0,0,0)" stroke-opacity="1" stroke-width="0" d=" M0,-158 C87.20020294189453,-158 158,-87.20020294189453 158,0 C158,87.20020294189453 87.20020294189453,158 0,158 C-87.20020294189453,158 -158,87.20020294189453 -158,0 C-158,-87.20020294189453 -87.20020294189453,-158 0,-158z"></path></g></g></g><g filter="url(#__lottie_element_31)" style="display: none;"><g><path stroke-linecap="butt" stroke-linejoin="miter" fill-opacity="0" stroke-miterlimit="4"></path></g></g><g clip-path="url(#__lottie_element_14)" transform="matrix(4.150000095367432,0,0,4.150000095367432,-1575,-1575)" opacity="1" style="display: block;"><g mask="url(#__lottie_element_23_1)" style="display: none;"><g><g><path></path><path stroke-linecap="butt" stroke-linejoin="miter" fill-opacity="0" stroke-miterlimit="4"></path></g></g></g><g mask="url(#__lottie_element_17_1)" style="display: none;"><g><g><path></path><path stroke-linecap="butt" stroke-linejoin="miter" fill-opacity="0" stroke-miterlimit="4"></path></g></g></g></g><g mask="url(#__lottie_element_7_1)" style="display: block;"><g transform="matrix(3.9839999675750732,0,0,3.9839999675750732,496.0160217285156,523.9039916992188)" opacity="1"><g opacity="1" transform="matrix(1,0,0,1,1,-6)"><path fill="rgb(227,30,48)" fill-opacity="1" d=" M0,-158 C87.20020294189453,-158 158,-87.20020294189453 158,0 C158,87.20020294189453 87.20020294189453,158 0,158 C-87.20020294189453,158 -158,87.20020294189453 -158,0 C-158,-87.20020294189453 -87.20020294189453,-158 0,-158z"></path><path stroke-linecap="butt" stroke-linejoin="miter" fill-opacity="0" stroke-miterlimit="4" stroke="rgb(0,0,0)" stroke-opacity="1" stroke-width="0" d=" M0,-158 C87.20020294189453,-158 158,-87.20020294189453 158,0 C158,87.20020294189453 87.20020294189453,158 0,158 C-87.20020294189453,158 -158,87.20020294189453 -158,0 C-158,-87.20020294189453 -87.20020294189453,-158 0,-158z"></path></g></g></g><g style="display: block;" transform="matrix(4.150000095367432,0,0,4.150000095367432,500,500)" opacity="1"><g opacity="1" transform="matrix(1,0,0,1,0,0)"><path stroke-linecap="round" stroke-linejoin="round" fill-opacity="0" stroke="rgb(255,255,255)" stroke-opacity="1" stroke-width="31" d=" M-50,9.75 C-50,9.75 -19.75,41 -19.75,41 C-19.75,41 50.25,-39.25 50.25,-39.25"></path></g></g></g></svg>