<svg xmlns="http://www.w3.org/2000/svg" width="144" height="115" viewBox="0 0 144 115">
    <g fill="none" fill-rule="evenodd">
        <path fill="#E8E8E8" d="M9.85 45.607c13.308-15.722 28.67-2.786 54.823-16.404C90.827 15.584 84.111 7.346 99.92 1.827 115.727-3.692 144 5.28 144 37.924c0 32.644-21.414 59.076-48.069 70.083-26.654 11.008-67.778 7.876-83.583-7.086C-3.458 85.959-3.458 61.329 9.85 45.607z" opacity=".582"/>
        <path fill="#8DBDD8" d="M81.507 14.895v8.13c0 .103.07.186.158.186s.16-.083.16-.186v-8.13c0-.103-.072-.187-.16-.187-.087 0-.158.084-.158.187M81.507 11.845v1.074c0 .102.07.185.158.185s.16-.083.16-.185v-1.074c0-.102-.072-.185-.16-.185-.087 0-.158.083-.158.185"/>
        <path fill="#1C3F61" d="M109.153 82.304c.003-.04.008-.078.012-.116-.004.038-.009.077-.012.116"/>
        <path fill="#101B27" d="M109.918 78.968"/>
        <path fill="#41B1B2" d="M116.696 64.05600000000001l.003-.01c.113-.378.37-.725.729-1.05-.358.325-.616.672-.729 1.05a31.46 31.46 0 0 1-.003.01"/>
        <path fill="#1C3F61" d="M108.774 83.246c-.343 0-.728-.494-.728-1 0 .506.385 1 .728 1h.018l.054-.003-.054.002h-.018"/>
        <path fill="#3E81CF" d="M88.856 22.862c-.456 4.916 3.148 7.753 4.756 11.9l5.853-3.617c-3.023-3.24-7.415-3.843-8.805-8.576l-1.804.293"/>
        <path fill="#4A90E2" d="M95.783 31.076c-3.677 1.389-11.756 2.372-15.548 3.298 0 2.719 1.551 4.918 2.873 7.174a76.303 76.303 0 0 1 3.62 6.77c.287.694 1.379 4.108 1.953 4.57 2.567-.667 5.574-1.793 8.045-3.703 3.85-2.95 6.833-6.192 7.983-10.936l-2.287-3.51-2.125-2.81-2.98-1.5h-1.115l-.419.647"/>
        <path fill="#94B8D5" d="M96.643 48.97"/>
        <path fill="#3E81CF" d="M91.995 51.605v-1.45c3.884-2.145 7.6-6.47 8.132-8.656.193 1.544.29 2.9.291 4.12-1.055 1.137-2.25 2.188-3.551 3.201-.092.072-.186.145-.28.216-1.417 1.094-3.008 1.93-4.592 2.57"/>
        <path fill="#F1B29C" d="M98.329 54.71c.165 1.02-.355 1.01-.523 1.722-.193.824-.55 1.75.249 2.157.123.063.365-.033.21-.333.092.024.479.325.586.345.417.078.751.19.877-.403.453-.395.615-1.111.494-1.702-.13-.51-.522-.638-.522-1.213 0-.573.522-1.339.718-1.913l-2.09 1.34"/>
        <path fill="#4A90E2" d="M99.979 40.921c.922 6.708.12 9.943-2.263 13.733.24.814 1.344.974 2.32.633 10.237-11.659 3.945-21.422 1.013-22.772l-1.07 8.406"/>
        <path fill="#94B8D5" d="M99.782 55.338"/>
        <path fill="#CD9A72" d="M99.217 55.637c-.078 0-.155-.005-.23-.015h.006a2.058 2.058 0 0 0 .63-.027 2.054 2.054 0 0 1-.406.042"/>
        <path fill="#94B8D5" d="M100.418 55.135l.042-.05-.042.05m.1-.117c2.718-3.208 4.185-6.263 4.826-9.027-.641 2.764-2.109 5.82-4.826 9.027"/>
        <path fill="#23ACA5" d="M105.345 45.83c.93-2.049.984-3.939.491-5.615.493 1.676.44 3.567-.49 5.615"/>
        <path fill="#3E81CF" d="M99.11 55.455c-.097 0-.19-.005-.281-.016.214-.03.661-.263.78-.392 8.386-9.561 5.748-17.796 2.962-21.227l.03-.021c1.217 1.329 2.468 3.561 2.902 6.419a.01.01 0 0 0 0 .003l.001.005c.253 1.674.226 3.563-.252 5.61-.651 2.791-2.14 5.874-4.898 9.111v.001l-.014.016-.001.001-.013.015-.002.002-.012.015-.002.002-.013.015-.001.002-.043.05-.003.003a.386.386 0 0 0-.015.017l-.01.012-.004.004-.01.013c-.002 0-.003.003-.004.004l-.012.013c0 .002-.001.002-.002.003l-.013.015-.002.002a2.2 2.2 0 0 0-.028.032l-.004.005-.01.012-.005.005-.009.01-.005.007-.01.01-.004.006a.115.115 0 0 0-.01.01.24.24 0 0 0-.014.016l-.005.007a.519.519 0 0 0-.014.015c-.02.008-.04.014-.059.02a3.04 3.04 0 0 1-.389.1c-.17.032-.34.048-.503.048"/>
        <path fill="#F1B29C" d="M98.781 26.74c-.155 1.188-.312 2.375-.624 3.563-.39 1.266-1.248 2.453-.39 3.562 2.107 2.929 7.1-.871 7.1-3.642l-6.086-3.483"/>
        <path fill="#282528" d="M105.762 27.896c.342-.926.624-1.962-.49-2.784-2.947-2.174-4.694-.418-5.605-.418-.42-.07-1.245-1.7-1.682.348-.77 3.62 2.663 5.778 5.746 4.595.07.835-.911 1.6-.841 2.227.14.905 1.32.954 1.962.627 1.538-.784 2.942-4.664.91-4.595"/>
        <path fill="#DB8149" d="M98.42 58.31c-.039-.137-.104-.29-.042-.433.081-.135.253-.182.4-.175.148.003.32.061.406.205.086.136.104.289.122.436-.058-.136-.104-.28-.186-.389-.077-.111-.212-.15-.347-.169-.13-.008-.286-.01-.387.097-.063.135-.003.29.034.428M99.465 57.22c.066.02.124.084.168.157.044.073.075.16.103.247.044.177.068.379.02.559a2.267 2.267 0 0 0-.086-.523 1.52 1.52 0 0 0-.082-.238.64.64 0 0 0-.123-.202"/>
        <path fill="#DB8149" d="M98.673 58.016c.054-.03.108-.03.16-.034.052.004.091.007.152.005l-.068.06-.086.015c-.054-.006-.106-.01-.158-.046"/>
        <path fill="#1C6C6F" d="M105.137 32.882000000000005"/>
        <path fill="#282528" d="M104.057 32.676a1.73 1.73 0 0 1-.248-.018c-.434-.062-.815-.299-.891-.787a.65.65 0 0 1-.003-.066c0-.586.84-1.29.842-2.055l-.003-.087a4.81 4.81 0 0 1-1.72.322c-1.569 0-3.003-.794-3.682-2.122 1.246.955 2.465 1.227 3.495 1.227 1.265 0 2.244-.409 2.64-.461h.006c.209 0-.174 1.414-.166 1.727.007.316.215.634.53.686a.954.954 0 0 0 .156.014c.895 0 1.54-1.285 1.571-2.162.015-.406-.086-.585-.251-.83.972.56.193 2.914-.903 4.005l-.004.004a.019.019 0 0 0-.003.004l-.002.001-.002.002-.004.004a2.454 2.454 0 0 1-.414.333.1.1 0 0 0-.009.006c-.002 0-.003.001-.005.003a.04.04 0 0 1-.004.002.066.066 0 0 1-.009.005l-.001.001-.003.002h-.001l-.003.002-.002.001-.002.002-.002.001-.002.001-.003.001-.001.001a.021.021 0 0 1-.003.002h-.001l-.003.003a.17.17 0 0 0-.012.006l-.003.002h-.001l-.003.002-.001.001-.003.001-.002.001-.003.002-.003.002-.002.001-.003.001a.265.265 0 0 1-.01.006l-.002.001s-.002 0-.003.002l-.004.002h-.001l-.003.002h-.001l-.002.002-.003.001-.002.001-.002.001-.002.001-.002.001-.002.002a1.925 1.925 0 0 1-.815.185"/>
        <g transform="translate(44.16 3.64)">
            <rect width="50.848" height="96.109" fill="#D73F30" rx="6.451"/>
            <path fill="#FFFFFE" d="M7 93.588h36.951a4.838 4.838 0 0 0 4.839-4.838V7.546a4.838 4.838 0 0 0-4.839-4.838H7a4.838 4.838 0 0 0-4.838 4.838V88.75A4.838 4.838 0 0 0 7 93.588z"/>
            <path fill="#E8E8E8" d="M5.661 88.06V77.449h2.283c.344 0 1.011-.17 1.011-.785v-2.898h35.331c.668 0 1.21.542 1.21 1.21v13.086c0 .835-.677 1.512-1.512 1.512H7.174A1.512 1.512 0 0 1 5.66 88.06z"/>
            <path fill="#C4C4C4" d="M8.253 77.448H5.661l3.294-3.683v2.898c0 .434-.314.785-.702.785"/>
            <path fill="#E8E8E8" d="M6.562 39.32h7.668a1.21 1.21 0 0 0 1.21-1.21V18.324a1.21 1.21 0 0 0-1.21-1.21H6.562a1.21 1.21 0 0 0-1.21 1.21V38.11c0 .668.542 1.21 1.21 1.21zM30.648 70.516h13.638a1.21 1.21 0 0 0 1.21-1.21V54.72a1.21 1.21 0 0 0-1.21-1.21H30.648a1.21 1.21 0 0 0-1.21 1.21v14.587c0 .668.542 1.21 1.21 1.21zM36.927 28.813h7.565a1.21 1.21 0 0 0 1.21-1.21v-9.387a1.21 1.21 0 0 0-1.21-1.21h-7.565a1.21 1.21 0 0 0-1.21 1.21v9.387c0 .668.542 1.21 1.21 1.21zM19.627 13.757h24.46a1.408 1.408 0 0 0 0-2.817h-24.46a1.408 1.408 0 0 0 0 2.817zM18.056 18.956H32.69a.867.867 0 1 0 0-1.733H18.056a.867.867 0 0 0 0 1.733zM18.056 23.83H32.69a.867.867 0 0 0 0-1.733H18.056a.867.867 0 0 0 0 1.733zM18.056 28.813H32.69a.867.867 0 0 0 0-1.733H18.056a.867.867 0 0 0 0 1.733zM17.953 33.362H44.63a.867.867 0 1 0 0-1.733H17.953a.867.867 0 0 0 0 1.733zM17.953 38.453H44.63a.867.867 0 0 0 0-1.733H17.953a.867.867 0 0 0 0 1.733zM5.352 12.348c0-.777.6-1.408 1.339-1.408s1.338.63 1.338 1.408c0 .778-.6 1.409-1.338 1.409-.74 0-1.339-.631-1.339-1.409zM10.808 13.757c-.74 0-1.338-.631-1.338-1.409 0-.777.599-1.408 1.338-1.408.739 0 1.338.63 1.338 1.408 0 .778-.6 1.409-1.338 1.409M14.822 13.757c-.739 0-1.338-.631-1.338-1.409 0-.777.6-1.408 1.338-1.408.74 0 1.338.63 1.338 1.408 0 .778-.599 1.409-1.338 1.409M6.842 70.733h19.254a.975.975 0 1 0 0-1.95H6.842a.975.975 0 0 0 0 1.95zM6.842 65.533h19.254a.975.975 0 1 0 0-1.95H6.842a.975.975 0 1 0 0 1.95zM6.842 60.442h19.254a.975.975 0 1 0 0-1.95H6.842a.975.975 0 0 0 0 1.95zM6.842 55.243h19.254a.975.975 0 1 0 0-1.95H6.842a.975.975 0 1 0 0 1.95zM6.636 50.477h37.885a.975.975 0 0 0 0-1.95H6.636a.975.975 0 1 0 0 1.95zM6.636 45.17h37.885a.975.975 0 1 0 0-1.95H6.636a.975.975 0 1 0 0 1.95z"/>
            <path fill="#D73F30" d="M14.41 2.275H36.67v1.884a1.53 1.53 0 0 1-1.53 1.53h-19.2a1.53 1.53 0 0 1-1.529-1.53V2.275z"/>
        </g>
        <path fill="#D7D4D4" d="M47.38 93.475H30.81l3.297-4.491h16.569l-3.296 4.491"/>
        <path fill="#B9B6B6" d="M47.339 93.368v11.658l3.337-4.385V88.984l-3.337 4.384"/>
        <path fill="#C4C4C4" d="M30.652 105.026h16.687V93.315H30.652z"/>
        <path fill="#F1B29C" d="M44.74 41.144c.239-.718 1.361-2.35 1.14-2.686-.05-.075-.518.519-.957 1.142.187-.324.358-.657.51-1 .07-.159.115-.391-.04-.47-.318.35-.616.72-.89 1.108.18-.357.288-.672.196-.8-.074-.104-.548.545-.941 1.21.22-.459.389-.89.282-.96-.175-.115-1.396 2.062-1.93 3.537-.402 1.113-1.097 2-1.446 2.803l2.476-.186s.262-1.2.528-1.637c.294-.482.95-.766 1.308-1.414.242-.439.88-1.196.676-1.397-.203-.202-.696.746-.911.75M38.207 90.558l-2.715.511s.049-.63.19-.969c.141-.34.245-.37.324-.748.336-1.617-.713-9.145-.292-12.01-.077-5.726.04-11.368-.818-13.81-.922-2.627 4.136-3.074 4.567 0 .432 3.072-1.505 25.767-1.034 26.068.743.476 2.076.51 2.076.89 0 .378-2.298.068-2.298.068"/>
        <path fill="#8ACFDC" d="M41.763 91.515c-.17.638-4.742.505-5.629.505-.887 0-.503-1.498-.267-1.588.236-.091 1.27.5 2.58.353.292-.033-.41-.655-.393-.927.513-.28.97.335 1.232.446.261.112 2.69.41 2.477 1.211"/>
        <path fill="#1D2B4A" d="M41.445 91.209c-.17.62-4.741.49-5.629.49-.886 0-.503-1.456-.267-1.543.406.254.97.397 2.278.254.292-.032-.314-.61.199-.88.512-.272.681.394.942.503.261.108 2.69.399 2.477 1.176"/>
        <path fill="#8ACFDC" d="M38.9 90.364a.65.65 0 0 1 .292-.41c.036-.02.052-.073.035-.117-.017-.045-.06-.064-.098-.043a.821.821 0 0 0-.369.52c-.012.046.01.096.05.11.038.014.079-.013.09-.06M39.254 90.53a.748.748 0 0 1 .4-.404.093.093 0 1 0-.072-.172.935.935 0 0 0-.5.506.093.093 0 0 0 .172.07M39.697 90.544a.619.619 0 0 1 .29-.3.071.071 0 0 0 .033-.098.077.077 0 0 0-.102-.031.764.764 0 0 0-.36.371.072.072 0 0 0 .04.096.077.077 0 0 0 .099-.038"/>
        <path fill="#282528" d="M40.065 67.325c.13 5.29-.564 14.134-1.36 19.966v.004c-.04.292-.08.575-.122.85-1.024.129-2.2-.092-3.126-.504-.514-3.816-.633-13.147-.984-16.188-.269-2.39-2.556-8.745-.277-16.158l4.877 1.18 1.024.245.09.02-.163 3.5L40 65.876c.028.445.048.929.065 1.45"/>
        <path fill="#24578D" d="M38.99 87.31c-.2-.18-3.486-.046-3.541 0-.084.067.03.925.115.977.094.058 3.146.088 3.293-.004.131-.083.334-.795.133-.973"/>
        <path fill="#F1B29C" d="M43.41 91.038l-2.765.512s.048-.631.192-.972c.145-.34.25-.371.33-.75.343-1.62-.726-9.168-.297-12.042-.078-5.741.04-11.398-.833-13.847-.94-2.633 2.35-4.28 2.79-1.199.202 1.425 1.752 8.257 1.405 13.932-.404 6.594-.854 13.243-.597 13.405.757.477 2.114.512 2.114.892s-2.34.069-2.34.069"/>
        <path fill="#8ACFDC" d="M46.849 91.836c-.17.638-4.742.505-5.629.505-.887 0-.503-1.498-.267-1.589.236-.09 1.27.501 2.579.354.292-.033-.409-.655-.392-.927.512-.28.97.335 1.232.446.26.112 2.69.41 2.477 1.21"/>
        <path fill="#25325B" d="M46.69 91.53c-.17.62-4.742.49-5.63.49-.886 0-.502-1.455-.266-1.543.405.254.969.397 2.277.254.293-.032-.314-.61.199-.88.513-.272.681.395.943.503.26.108 2.69.398 2.477 1.176"/>
        <path fill="#8ACFDC" d="M43.986 90.685a.652.652 0 0 1 .291-.41c.037-.02.052-.073.035-.117-.017-.045-.06-.064-.097-.043a.822.822 0 0 0-.37.52c-.011.046.011.096.05.11.038.014.08-.013.09-.06M44.34 90.85a.75.75 0 0 1 .399-.404.094.094 0 0 0-.072-.172.936.936 0 0 0-.5.506.093.093 0 0 0 .173.07M44.941 91.025a.613.613 0 0 1 .29-.3.071.071 0 0 0 .033-.097.077.077 0 0 0-.101-.032.761.761 0 0 0-.36.372.072.072 0 0 0 .039.095.077.077 0 0 0 .1-.038"/>
        <path fill="#1B181B" d="M38.635 87.38c-.454-5.098.597-11.945-1.454-21.406-.304-1.405-.127-2.84-.056-3.3l.037.006c.368 1.786 1.64 6.001 1.898 7.054.37 1.52.537 4.094.65 6.88-.26 3.786-.653 7.693-1.075 10.765"/>
        <path fill="#282528" d="M43.793 88.181c-.33-.17-.674-.229-1.027-.245-.207-.009-.417-.003-.631.003-.522.014-1.064.029-1.632-.166-.75-3.75-.39-14.23-1.337-18.045-.28-1.126-1.75-5.887-1.995-7.385-.375-2.296-.034-4.963.365-7.048h5.742c1.09 2.498 1.073 5.484 1.22 8.149.016.325.033.667.046 1.026.26 6.434-.034 17.898-.75 23.711"/>
        <path fill="#282528" d="M43.688 88.342a1.793 1.793 0 0 0-.232-.108 2.364 2.364 0 0 0-.73-.14c-.035-2.175.068-16.013-.015-19.605-.049-2.039-.097-4.094-.458-6.093a5.62 5.62 0 0 0 .628-.29c.495-.258.951-.6 1.356-1.036.044.816.07 1.624.11 2.405.016.327.032.67.044 1.031.059 1.567.087 3.43.087 5.437 0 6.28-.281 13.97-.79 18.399"/>
        <path fill="#24578D" d="M44.076 87.617c-.2-.153-3.486-.038-3.542 0-.083.058.031.793.115.839.094.05 3.146.075 3.293-.004.132-.072.334-.681.134-.835"/>
        <path fill="#F1B07A" d="M41.459 34.44c1.416.39 1.073 1.087.146 1.284"/>
        <path fill="#F5DA23" d="M44.637 60.765a5.207 5.207 0 0 1-1.674 1.306c-.94.48-2.004.697-3.085.75-.053.004-.11.009-.163.009-.075 0-.145.004-.22.004-3.33.044-6.644-1.394-6.618-1.637.316-2.86.167-10.733.185-13.123.045-6.432 2.434-7.532 4.073-7.832l1.406.07c2.862-.922 5.657 5.022 5.573 5.459.053.388.062 1.416.07 2.788.018 3.376.005 8.856.453 12.206"/>
        <path fill="#EBD644" d="M44.637 60.748a5.236 5.236 0 0 1-1.685 1.308c-.924.443-1.994.669-3.104.752-.053.005-.11.01-.163.01a6.342 6.342 0 0 1-.292.017l.07-.014c.916-.256 3.384-1.805 3.6-4.608.023-.293-.12-9.075-.225-11.741l1.344 2.043c.017 3.383.004 8.876.455 12.233"/>
        <path fill="#E9A045" d="M45.777 45.349l.767.939s-.737 4.188-1.15 3.257c-.415-.93-.916-3.033-.916-3.033l1.3-1.163"/>
        <path fill="#F1B29C" d="M56.392 42.586c.103-.292-1.31.718-1.763 1.014 1.02-.834 1.689-1.586 1.585-1.749-.104-.162-1.697 1.182-2.04 1.363.266-.306 1.57-1.449 1.388-1.705-.087-.123-1.23.89-1.914 1.38.321-.325.473-.482.44-.751-.056-.466-1.697 1.644-2.242 2.248-.216.24-3.83 1.59-4.198 1.644-.434.064-2.97-2.72-2.97-2.72l-1.312 2.973c1.818 1.352 3.185 2.631 3.848 2.75.904.162 5.117-3.06 5.517-3.159.793-.194 2.12-1.134 2.636-1.592.35-.312.94-.72 1.02-.957.081-.238-1.01.435-1.587.797.63-.447 1.489-1.243 1.592-1.536"/>
        <path fill="#EBD644" d="M46.703 45.318c-2.665-3.27-5.463-4.954-7.787-5.423l2.603 6.28c1.028 1.386 2.334 2.729 4.05 3.505-.307-1.975.701-4.164 1.134-4.362"/>
        <path fill="#F1B29C" d="M37.025 40.18s-.082-1.241.124-2.548c.206-1.307 2.82-1.231 2.454.05-.366 1.281.107 2.504.107 2.504.02.786-2.47 1.393-2.685-.006"/>
        <path fill="#F1B29C" d="M40.215 31.553c1.391 1.142 2.51 6.534 1.474 7.389-.51.422-3.182 1.181-4.203 0l2.729-7.39"/>
        <path fill="#282528" d="M41.878 31.251c-.222-.183-.529-.21-.813-.188-.037.002-.074.012-.112.016l-.042-.045c.1-.08.192-.168.272-.268.16-.203.275-.503.13-.718-.115-.17-.342-.21-.543-.206a2.25 2.25 0 0 0-.974.246c-.015-.207-.102-.409-.27-.518-.132-.084-.294-.104-.45-.103a2.014 2.014 0 0 0-.966.262c-.139-.201-.456-.23-.71-.186-.446.076-.873.26-1.245.524a.786.786 0 0 0-.46-.112c-.293.025-.54.237-.726.472-.05.064-.097.134-.131.208a1.955 1.955 0 0 0-.358-.08c-.194-.021-.402-.01-.568.095-.209.131-.316.4-.291.65a.92.92 0 0 0 .219.495c-.569.044-1.19.368-1.492.842-.35.549-.025 1.098.183 1.191-.15.19-.272.402-.355.631-.094.257-.14.55-.03.8.104.232.326.386.559.474.052.02.106.026.16.04a2.662 2.662 0 0 0-.161.484c-.035.16-.05.345.05.474.1.13.283.156.442.126a.834.834 0 0 0 .297-.128c-.118.9.143 1.181.624 1.09.01.1.026.198.048.296.036.16.1.334.245.405.044.022.09.029.138.03.031.223.089.434.203.574.167.203.413.198.602.049l.062-.063.02.016c.046.261.15.497.294.657a.4.4 0 0 0 .211.14c.108.02.217-.049.298-.156l.044-.076c.395.235.738.406.959.526 1.295.705 1.645-1.084 2.37-2.394.906-1.642.924-2.09.371-3.891.021-.037.037-.076.057-.113h.04c.384-.023.776-.181 1.013-.495a.779.779 0 0 0 .166-.424c.01-.207-.087-.388-.229-.537.232-.046.46-.109.683-.192a.717.717 0 0 0 .265-.15c.204-.204.124-.587-.099-.77"/>
        <path fill="#58748E" d="M35.887 40.374c.092-.02.181-.142.251-.316l.026-.083-.025.083c-.07.177-.16.298-.252.316m.645-.092c-.11-.114-.227-.24-.348-.374v-.002c.121.136.238.261.348.376m-.833-.017a1.145 1.145 0 0 1-.102-.174 2.81 2.81 0 0 1 .001 0c.032.066.065.126.1.174"/>
        <path fill="#243E69" d="M41.168 32.996a.663.663 0 0 0 .054-.226c.01-.209-.09-.391-.24-.542.15.148.25.331.24.543a.662.662 0 0 1-.054.225m.564-1.976a1.238 1.238 0 0 0-.547-.109c-.055 0-.11.002-.165.006h.001c.055-.004.11-.006.166-.006.19 0 .381.027.545.109"/>
        <path fill="#77614E" d="M37.704 40.376a.964.964 0 0 1-.003-.001c.452 0 .77-.401 1.054-.962h.002c-.283.562-.602.963-1.053.963M38.758 39.574h-.001c.174-.308.334-.673.504-1.04-.17.367-.329.732-.503 1.04m1.334-5.7"/>
        <path fill="#282528" d="M37.763 40.376a.991.991 0 0 1-.352-.07 1.558 1.558 0 0 1-.19-.089c-.158-.086-.378-.197-.636-.337-.104-.058-.214-.12-.33-.188l-.019.034-.024.042c-.066.087-.15.148-.237.158a.21.21 0 0 1-.062-.003.287.287 0 0 1-.117-.051.595.595 0 0 1-.096-.088 1.082 1.082 0 0 1-.169-.258 1.44 1.44 0 0 1-.111-.35c.304.171.537.374.74.398.07.008.139.013.204.013 1.113 0 1.49-1.17 2.177-2.404.909-1.639.93-2.088.374-3.882l.058-.114h.037c.387-.025.781-.18 1.02-.496a.8.8 0 0 0 .169-.424c.008-.206-.091-.387-.23-.534.23-.046.46-.11.682-.193a.7.7 0 0 0 .267-.147.432.432 0 0 0 .12-.311l.023-.005c.052-.003.105-.006.158-.006.183 0 .367.027.525.108a.74.74 0 0 1 .221.178c.07.09.114.2.126.312a.444.444 0 0 1-.141.39.637.637 0 0 1-.156.092 4.365 4.365 0 0 1-.77.224c.144.15.24.33.23.538a.674.674 0 0 1-.051.224.858.858 0 0 1-.116.197c-.077.102-.17.188-.274.258-.213.142-.472.22-.729.237l-.013.001h-.041c-.02.038-.037.076-.058.113.396 1.28.501 1.876.198 2.707-.063-.2-.184-.38-.345-.512a.52.52 0 0 0-.31-.127.246.246 0 0 0-.163.058c-.067.057-.097.146-.12.232-.082.29-.136.592-.109.89.027.301.14.6.353.808l.02.02c-.083.162-.162.328-.238.495-.17.369-.33.736-.502 1.045-.267.477-.567.817-.993.817"/>
        <path fill="#1F2F4C" d="M41.039 30.963l-.078.01-.036-.039c.032-.025.064-.053.096-.086.01.04.018.075.018.115"/>
        <path fill="#1A2225" d="M39.393 38.13a6.94 6.94 0 0 1 .096-.204c.246-.495.424-.888.539-1.24v.001c-.115.353-.292.745-.538 1.24a6.925 6.925 0 0 0-.097.203"/>
        <path fill="#0F1417" d="M39.476 37.97l-.022-.019a1.185 1.185 0 0 1-.372-.774c-.028-.287.028-.577.114-.855.026-.082.057-.168.127-.223a.277.277 0 0 1 .173-.055.58.58 0 0 1 .328.122c.169.126.296.3.363.491-.129.32-.327.678-.604 1.128a5.87 5.87 0 0 0-.107.185"/>
        <path fill="#F1B29C" d="M40.163 36.723a1.092 1.092 0 0 0-.378-.673c-.134-.11-.434-.231-.57-.125-.697.547.014 1.772.224 1.98.155.152.372.253.583.218.313-.051.296-.263.324-.588"/>
    </g>
</svg>
