<svg xmlns="http://www.w3.org/2000/svg" width="24" height="24" viewBox="0 0 24 24" fill="none" class="injected-svg" data-src="/v2/static/icons/link.svg" xmlns:xlink="http://www.w3.org/1999/xlink">
<g clip-path="url(#clip0_2604_48284-23)">
<path d="M13.8453 17.267L10.5833 20.529C9.63619 21.4507 8.36427 21.9625 7.04271 21.9537C5.72115 21.9448 4.45621 21.416 3.52157 20.4816C2.58694 19.5473 2.05776 18.2825 2.04853 16.9609C2.0393 15.6393 2.55077 14.3673 3.47226 13.42L6.73426 10.155C6.92177 9.96732 7.02706 9.71287 7.02697 9.4476C7.02687 9.18233 6.92141 8.92796 6.73376 8.74046C6.54612 8.55295 6.29168 8.44766 6.02641 8.44775C5.76114 8.44785 5.50677 8.55332 5.31926 8.74096L2.05826 12.006C0.740537 13.3243 0.00050793 15.1122 0.000976785 16.9762C0.00144564 18.8402 0.742374 20.6277 2.06076 21.9455C3.37916 23.2632 5.16701 24.0032 7.03103 24.0027C8.89505 24.0023 10.6825 23.2613 12.0003 21.943L15.2623 18.681C15.4444 18.4924 15.5452 18.2398 15.5429 17.9776C15.5407 17.7154 15.4355 17.4645 15.2501 17.2791C15.0647 17.0937 14.8139 16.9886 14.5517 16.9863C14.2895 16.984 14.0369 17.0848 13.8483 17.267H13.8453Z" fill="#151515"></path>
<path d="M21.9445 2.06102C21.2938 1.40584 20.5195 0.886303 19.6665 0.532521C18.8136 0.178738 17.8989 -0.00225646 16.9755 2.46408e-05C16.0525 -0.00242709 15.1383 0.178103 14.2855 0.531176C13.4328 0.884249 12.6585 1.40286 12.0075 2.05702L8.74047 5.32002C8.55283 5.50753 8.44736 5.7619 8.44727 6.02717C8.44717 6.29244 8.55246 6.54688 8.73997 6.73452C8.92748 6.92217 9.18184 7.02763 9.44712 7.02773C9.71239 7.02782 9.96683 6.92253 10.1545 6.73502L13.4195 3.47302C13.885 3.00467 14.4389 2.63333 15.0489 2.38048C15.659 2.12764 16.3131 1.99833 16.9735 2.00002C17.9677 2.00035 18.9396 2.29546 19.7662 2.84802C20.5927 3.40059 21.2369 4.18582 21.6173 5.10444C21.9977 6.02307 22.0972 7.03384 21.9032 8.009C21.7092 8.98416 21.2305 9.87991 20.5275 10.583L17.2655 13.845C17.0778 14.0327 16.9724 14.2872 16.9724 14.5525C16.9724 14.8179 17.0778 15.0724 17.2655 15.26C17.4531 15.4477 17.7076 15.5531 17.973 15.5531C18.2383 15.5531 18.4928 15.4477 18.6805 15.26L21.9425 12C23.2585 10.6811 23.9978 8.89413 23.9982 7.03094C23.9985 5.16775 23.26 3.38046 21.9445 2.06102Z" fill="#151515"></path>
<path d="M14.2926 8.29292L8.29259 14.2929C8.19708 14.3852 8.1209 14.4955 8.06849 14.6175C8.01608 14.7395 7.9885 14.8707 7.98734 15.0035C7.98619 15.1363 8.01149 15.268 8.06177 15.3909C8.11205 15.5138 8.18631 15.6254 8.2802 15.7193C8.37409 15.8132 8.48574 15.8875 8.60864 15.9377C8.73154 15.988 8.86321 16.0133 8.99599 16.0122C9.12877 16.011 9.25999 15.9834 9.382 15.931C9.504 15.8786 9.61435 15.8024 9.70659 15.7069L15.7066 9.70692C15.8888 9.51832 15.9895 9.26571 15.9873 9.00352C15.985 8.74132 15.8798 8.49051 15.6944 8.3051C15.509 8.11969 15.2582 8.01452 14.996 8.01224C14.7338 8.00997 14.4812 8.11076 14.2926 8.29292Z" fill="#151515"></path>
</g>
<defs>
<clipPath id="clip0_2604_48284-23">
<rect width="24" height="24" fill="white"></rect>
</clipPath>
</defs>
</svg>