<svg xmlns="http://www.w3.org/2000/svg" xmlns:xlink="http://www.w3.org/1999/xlink" width="153" height="115" viewBox="0 0 153 115">
    <defs>
        <path id="b" d="M121.463 85.747l-102.6.212a2.481 2.481 0 0 1-2.483-2.479l-.14-68.113a2.481 2.481 0 0 1 2.473-2.489l102.6-.212a2.481 2.481 0 0 1 2.484 2.479l.14 68.113a2.482 2.482 0 0 1-2.474 2.489"/>
        <filter id="a" width="115.8%" height="124.6%" x="-10.7%" y="-6.1%" filterUnits="objectBoundingBox">
            <feOffset dx="-3" dy="5" in="SourceAlpha" result="shadowOffsetOuter1"/>
            <feGaussianBlur in="shadowOffsetOuter1" result="shadowBlurOuter1" stdDeviation="2"/>
            <feColorMatrix in="shadowBlurOuter1" values="0 0 0 0 0.801488904 0 0 0 0 0.801488904 0 0 0 0 0.801488904 0 0 0 0.5 0"/>
        </filter>
    </defs>
    <g fill="none" fill-rule="evenodd">
        <path fill="#E8E8E8" d="M18.85 45.607c13.308-15.722 28.67-2.786 54.823-16.404C99.827 15.584 93.111 7.346 108.92 1.827 124.727-3.692 153 5.28 153 37.924c0 32.644-21.414 59.076-48.069 70.083-26.654 11.008-67.778 7.876-83.583-7.086C5.542 85.959 5.542 61.329 18.85 45.607z" opacity=".582"/>
        <path fill="#E8E8E8" d="M59.35 95.798c0 .642-5.847 1.162-13.057 1.162-7.211 0-13.057-.52-13.057-1.162 0-.641 5.846-1.162 13.057-1.162 7.21 0 13.056.52 13.056 1.162"/>
        <path fill="#C8D7E5" d="M127.182 95.798c0 .642-5.846 1.162-13.057 1.162-7.21 0-13.056-.52-13.056-1.162 0-.641 5.845-1.162 13.056-1.162 7.211 0 13.057.52 13.057 1.162M141.858 8.92c-.037-.212-.078-.42-.123-.621-.018-.085-.108-.14-.2-.123-.093.017-.153.1-.135.184.044.199.084.402.121.611.015.086.103.143.196.13.094-.014.157-.095.141-.18M.144 34.446c.202.045.415.069.635.069h.008c.086 0 .155-.09.155-.2 0-.11-.069-.2-.154-.2H.779c-.203 0-.398-.022-.583-.062-.084-.019-.164.054-.179.163-.014.108.042.212.127.23"/>
        <path fill="#1E3F86" d="M121.441 58.555c.151.928-.443 1.809-1.326 1.967-.883.158-1.72-.465-1.872-1.394-.15-.927.443-1.808 1.326-1.966.884-.158 1.721.466 1.872 1.393"/>
        <path fill="#E8E8E8" d="M123.629 39.628l-.001-.337 1.008-.002c.097 0 .175.075.176.168a.172.172 0 0 1-.175.169l-1.008.002m1.058-11.592a.172.172 0 0 1-.175-.168c0-.093.078-.169.174-.17l.95-.001v.337l-.949.002M124.092 72.788v-.338h.536a765.16 765.16 0 0 0 .86-.003c.096 0 .174.076.174.17a.172.172 0 0 1-.174.168l-.693.001-.445.001h-.258m1.839-7.945a6.872 6.872 0 0 0-1.106-.084H124.54a.171.171 0 0 1-.174-.17c0-.092.078-.168.175-.168l.182.001h.1c.404 0 .781.03 1.135.085a.173.173 0 0 1 .141.128v.077a.173.173 0 0 1-.17.13"/>
        <g>
            <use fill="#000" filter="url(#a)" xlink:href="#b"/>
            <use fill="#FFFFFE" xlink:href="#b"/>
        </g>
        <path fill="#D73F30" d="M121.225 12.666l-102.29.211a2.702 2.702 0 0 0-2.696 2.708l.005 2.35 107.693-.223-.005-2.35a2.702 2.702 0 0 0-2.707-2.696"/>
        <path fill="#E8E8E8" d="M18.94 85.959l15.532-.032-.14-67.992-18.247.037.135 65.293a2.707 2.707 0 0 0 2.72 2.694"/>
        <path fill="#D73F30" stroke="#FFF" stroke-width="6" d="M121.318 12.666h-.005l-102.6.213a2.48 2.48 0 0 0-2.474 2.488l.14 68.113a2.481 2.481 0 0 0 2.479 2.479h.005l102.6-.212a2.48 2.48 0 0 0 2.474-2.49l-.14-68.112a2.481 2.481 0 0 0-2.479-2.479m0 .684c.989 0 1.795.806 1.797 1.796l.14 68.113a1.8 1.8 0 0 1-1.793 1.804l-102.604.212a1.801 1.801 0 0 1-1.797-1.796l-.14-68.113a1.795 1.795 0 0 1 1.793-1.804l102.599-.212h.005"/>
        <path fill="#FFFFFE" d="M31.662 80.664l-11.99.026c-.529.001-.959-.45-.96-1.007v-.125c-.001-.557.426-1.01.956-1.01l11.99-.027c.529-.001.959.45.96 1.007v.125c.001.558-.427 1.01-.956 1.011M31.174 34.804l-10.218.02a1.759 1.759 0 0 1-1.76-1.757l-.02-10.247a1.76 1.76 0 0 1 1.752-1.765l10.218-.021a1.76 1.76 0 0 1 1.76 1.758l.021 10.246a1.759 1.759 0 0 1-1.753 1.766"/>
        <path fill="#E8E8E8" d="M73.714 64.965l-35.368.075c-.687.002-1.245-.57-1.247-1.275v-.159c-.001-.705.554-1.279 1.241-1.28l35.368-.075c.687-.002 1.246.57 1.247 1.275v.159c.002.705-.554 1.279-1.241 1.28M71.86 24.693l-27.951.06c-.688.001-1.245-.573-1.247-1.283v-.159c-.002-.71.554-1.286 1.241-1.288l27.951-.06c.687-.001 1.245.573 1.247 1.283v.16c.002.709-.554 1.286-1.242 1.287M116.048 53.03l-37.37.079c-.689.001-1.248-.569-1.25-1.273v-.159c-.002-.704.556-1.277 1.245-1.278l37.37-.08c.688 0 1.248.57 1.25 1.274v.158c.001.705-.556 1.278-1.245 1.28M74.023 70.699l-35.368.074c-.687.002-1.245-.57-1.247-1.275v-.158c-.001-.706.554-1.28 1.241-1.28l35.369-.076c.687-.001 1.245.57 1.246 1.276v.158c.002.706-.554 1.28-1.241 1.28M74.023 76.122l-35.368.075c-.687.001-1.245-.57-1.247-1.275v-.159c-.001-.706.554-1.279 1.241-1.28l35.369-.075c.687-.001 1.245.57 1.246 1.275v.158c.002.706-.554 1.28-1.241 1.28M115.238 79.378l-35.716.073a2.05 2.05 0 0 1-2.063-2.038l-.031-15.212a2.05 2.05 0 0 1 2.054-2.046l35.716-.073a2.05 2.05 0 0 1 2.063 2.037l.032 15.212a2.05 2.05 0 0 1-2.055 2.047M23.038 16.229a.774.774 0 1 1-1.547.005.774.774 0 0 1 1.547-.005M26.746 16.229a.774.774 0 1 1-.774-.773c.427-.001.774.345.774.773M30.455 16.229a.774.774 0 0 1-.771.776.774.774 0 0 1-.003-1.55c.426 0 .773.346.774.774M41.27 23.586a2.553 2.553 0 0 1-2.544 2.561 2.553 2.553 0 0 1-2.554-2.551 2.553 2.553 0 0 1 2.544-2.562 2.554 2.554 0 0 1 2.555 2.552"/>
        <path fill="#FFFFFE" d="M31.385 36.663l-10.975.021c-.255 0-.462-.19-.462-.427v-.053c0-.236.205-.428.46-.429l10.975-.02c.255-.001.462.19.462.426v.053c.001.237-.205.428-.46.429M31.385 38.832l-10.975.021c-.255 0-.462-.19-.462-.427v-.053c0-.236.205-.428.46-.429l10.975-.02c.255-.001.462.19.462.426v.054c0 .236-.206.428-.46.428"/>
        <path fill="#D73F30" d="M40.774 43.54l.023 13.288h-2.239c-.95.002-2.181-1.087-2.183-2.053l-.049-23.926c-.002-.976 1.094-1.927 1.776-1.913h5.796v14.571l-3.124.032z"/>
        <path fill="#E8E8E8" d="M64.349 28.781h-.005l-26.117.054a2.058 2.058 0 0 0-2.055 2.063l.049 23.876a2.059 2.059 0 0 0 2.059 2.054h.004l26.118-.054a2.058 2.058 0 0 0 2.055-2.062l-.05-23.877a2.058 2.058 0 0 0-2.058-2.054zm0 0v.343c.944 0 1.714.768 1.716 1.712l.05 23.876a1.718 1.718 0 0 1-1.713 1.72l-26.122.053a1.719 1.719 0 0 1-1.717-1.712l-.049-23.876a1.718 1.718 0 0 1 1.713-1.72l26.118-.053.004-.343zM107.496 48.1l-34.652-7.862a2.056 2.056 0 0 1-1.546-2.458l3.898-17.312a2.048 2.048 0 0 1 2.449-1.552l34.652 7.86a2.056 2.056 0 0 1 1.546 2.459l-3.899 17.312a2.047 2.047 0 0 1-2.448 1.552"/>
        <path fill="#C4C4C4" d="M40.717 95.091l-4.893.01-1.197-6.029 7.262-.014-1.172 6.033"/>
        <path fill="#D73F30" d="M35.875 89.066c.001.515-.097 1.379.245 1.391.343.014.201-.82.592-.797.249.014-.116 2.74.826 2.806.647.045.529-1.337.595-2.202.045-.585.794-.47.8-.083.007.433-.02.723 0 1.216.036.822 1.3.604 1.255-.495-.045-1.1-.003-1.844-.003-1.844l-4.31.008"/>
        <path fill="#121C2C" d="M34.655 93.241c-.096 0-.189-.009-.278-.03-.347-.08-.59-.268-.723-.563-.48-1.057.783-3.037.832-3.125l.067.356c-.012.02-1.11 1.723-.679 2.673.102.226.285.366.558.429.075.017.154.025.236.025 1.696-.003 4.594-3.286 4.625-3.324.119-.148.34-.008.262.116-.133.158-3.078 3.44-4.9 3.443"/>
        <path fill="#C9D5E2" d="M93.034 12.821a9 9 0 0 0 1.418-.93c.327.295.626.605.9.926l-2.318.004"/>
        <path fill="#71C2B3" d="M74.646 12.821a11.69 11.69 0 0 1 2.068-1.864c.1.765.136 1.423.163 1.86l-2.23.004m2.608-.005a19.22 19.22 0 0 1 .777-2.68c2.26-1.229 4.845-1.808 7.183-1.808.172 0 .342.003.512.009 4.161.154 6.97 1.51 8.852 3.42a8.821 8.821 0 0 1-1.394 1.027l-15.93.032m-.107-1.023a20.158 20.158 0 0 0-.118-1.052c.18-.12.364-.235.55-.346-.16.462-.306.928-.432 1.398"/>
        <path fill="#169186" d="M77.181 12.821c-.014-.273-.031-.638-.062-1.065.11-.49.237-.974.377-1.455.13-.093.262-.182.395-.269-.28.919-.517 1.85-.679 2.789h-.031"/>
        <path fill="#169186" d="M76.959 12.821c-.025-.456-.058-1.144-.15-1.943.096-.077.192-.152.29-.226.049.395.083.766.109 1.1.032.428.05.794.065 1.069h-.314"/>
        <path fill="#EBD644" d="M73.568 27.077c-.579 0-1.069-.693-1.004-1.624-.089-.329-.17-.652-.24-.97.308-.226.508-.589.507-1v-.152a1.234 1.234 0 0 0-.887-1.18c-.154-1.565-.078-2.988.183-4.272l3.274-.007c-.638 1.606-1.142 3.855-1.53 6.982 0 0 .134.452.201.948l-.281 1.241a.766.766 0 0 1-.223.034m24.397-3.47l-2.123-.39c-.183-2.338-.693-4.082-1.371-5.384l2.974-.006c.483 2.07.572 4.13.52 5.78M74.526 12.865l.001-.001 2.22-.004.34-.001h.036l15.851-.033 2.266-.005v.001l-20.714.043M72.329 17.78c.34-1.66.998-3.088 1.873-4.295l21.72-.044c.849 1.337 1.4 2.814 1.747 4.288l-2.976.006c-1.463-2.777-3.71-3.522-5.15-3.732l-8.54.018h-.108c-2.348 0-4.066.707-5.29 3.752l-3.276.007"/>
        <path fill="#EBD644" d="M74.337 13.596c.168-.252.344-.495.526-.729l20.648-.046c.162.237.314.48.458.727l-21.632.048"/>
        <path fill="#A9BCD6" d="M72.35 24.598a21.88 21.88 0 0 1-.33-2.325c.445.15.77.62.772 1.177v.152c.001.41-.173.771-.442.996"/>
        <path fill="#F5DA23" d="M85.552 6.943c-6.878-.267-16.347 4.89-12.988 17.5l1.306-.61c1.145-9.375 3.288-10.997 6.924-10.964l8.531-.017c2.109.315 6.044 2.212 6.619 9.717l2.021-.005c.166-5.421-1.129-15.184-12.413-15.621"/>
        <path fill="#F1B29C" d="M84.168 7.088l-1.023 2.297s.122 1.293 1.365 1.267c1.242-.028 1.408-.614 1.408-.614l.162-2.637-1.912-.313"/>
        <path fill="#F1B29C" d="M89.635 5.337c-1.196 2.104-1.726 2.759-3.29 3.075-2.026.41-4.297-.95-3.242-4.3.861-2.73 2.164-2.31 3.441-2.207 1.276.103 4.383 1.159 3.091 3.432"/>
        <path fill="#282528" d="M85.018 3.77c-.316-.167-.722-.026-.967.235-.252.268-.373.669-.266 1.022-.486.007-.913.488-.867.976-.332-.782-.152-1.595-.218-2.395-.065-.8.021-1.671.535-2.284.211-.252.482-.445.77-.6a3.95 3.95 0 0 1 3.578-.05c.23.114.806.48 1.61.284 1.532-.374 2.429.672 1.508 1.652.295.108.62.24.754.528.034.073.052.165.006.232-.032.046-.087.07-.14.088-.259.088-.538.11-.807.065.104.088.672.123.843.457.457.888-1.353.44-1.628.35.315.06 1.141.726.877 1.182-.052.09-1.168.747-2.341-.628-.273-.32-.613-.616-1.017-.724-.318-.085-.65.032-.956.15-.224.084-.796.436-.96.227-.18-.23.052-.584-.314-.768"/>
        <path fill="#F1B29C" d="M96.5 22.644c-.278 1.036-.559 1.14-.222 1.304.337.165.61-.415.61-.415l1.554.335s-.351-1.095-.596-1.227c-.245-.132-1.346.003-1.346.003M74.02 23.823c.236.574.3.578.63 1.268.628 1.319-.844 3.404-1.758 1.127-.25-.624-.254-1.771-.254-1.771l1.382-.624"/>
        <path fill="#282528" d="M87.408.735c1.135.06 2.534-.71 3.424.278.082.09.248-.03.175-.13-.85-1.17-2.43-.3-3.6-.329-.121-.003-.12.175 0 .181"/>
        <path fill="#282528" d="M87.774.284c-.804.17-1.58-.29-2.386-.137-.656.125-1.24.53-1.735 1.053-.126.133.04.395.18.282.694-.552 1.36-1.029 2.225-.952.628.055 1.162.28 1.785.054.161-.058.092-.334-.069-.3M83.356 1.213c-.478.353-.754.823-.81 1.501-.041.486-.054 1.605.361 1.88.1.065.204-.09.122-.188-.265-.32-.29-1.181-.27-1.587.03-.623.248-1.096.665-1.467.068-.06.008-.195-.068-.139M91.785 3.252c-.269-.45-.958-.847-1.487-.561-.083.044-.044.167.048.169.231.004.443-.025.67.042.256.076.47.22.626.431.06.083.197.01.143-.08"/>
        <path fill="#5F9E48" d="M54.096 55.433c3.549 1.34 6.631 5.524 5.924 8.565-.799 3.434-3.105 4.916-3.105 4.916l-.727-1.38s1.844-2.961 1.684-4.36c-.257-2.24-3.01-3.736-3.01-3.736l-.766-4.005"/>
        <path fill="#121C2C" d="M45.083 94.02s-2.185.89-2.73 1.39l4.326-.008-.003-1.386-1.593.004M54.872 94.016s.65.694.769 1.39l-3.09.005c.053-.481.275-.941.576-1.392l1.745-.003"/>
        <path fill="#282528" d="M54.916 94.013l-1.987.003c.04-2.42-.444-10.665-.91-16.83-.275-3.614-.546-6.519-.705-7.107l1.065-.242 4.02-.923c.687 3.246-.9 18.152-1.483 25.099"/>
        <path fill="#188E84" d="M47.515 69.861c-1.604 2.53-2.019 20.811-2.69 24.2l1.95.11s2.24-11.525 7.012-24.482l-6.272.172"/>
        <path fill="#1F191F" d="M51.95 75.422a194.1 194.1 0 0 0-.172-1.615c.59-1.38 1.232-2.806 1.926-4.254l.855-.02a113.11 113.11 0 0 0-2.61 5.889"/>
        <path fill="#147E78" d="M51.697 74.957c-.213-2.59-.411-4.527-.537-4.992l1.05-.239 1.268-.037a163.544 163.544 0 0 0-1.781 5.268"/>
        <path fill="#282528" d="M47.515 69.861c-1.604 2.53-2.019 20.811-2.69 24.2l1.95.11s2.24-11.525 7.012-24.482l-6.272.172"/>
        <path fill="#F1B29C" d="M48.627 49.393s-1.256 4.852 1.881 4.846l-.186 1.24 2.383.264-.515-1.728s.471-3.05.503-3.601c.059-1.03-2.785-2.842-4.066-1.021"/>
        <path fill="#121C2C" d="M40.962 47.84h-.766l-.007-3.872.766-.001.007 3.872"/>
        <path fill="#D73F30" stroke="#FFF" d="M43.227 43.957l-5.3.01c-.371 0-.672-.28-.673-.627v-.13c-.001-.346.299-.628.67-.628l5.3-.01c.371 0 .673.28.673.626v.13c.001.346-.299.628-.67.629"/>
        <path fill="#F1B29C" d="M39.773 49.119c-.026-.912-.815-.673-.38-2.16.268-.92 2.26.148 2.011.786-.248.637-.533 1.645-.533 1.645l-1.098-.271"/>
        <path fill="#7BBD62" d="M43.344 56.938c-3.112-.364-2.567-6.108-2.183-8.168l-1.859.004s-3.35 13.084 7.234 10.665c-.407 2.291 2.225 6.034-.327 10.577 4.018 1.084 7.767 1.35 10.977-.022-.562-.752 1.152-8.354-2.204-13.827-.655-1.068-4.182-.889-4.526-.866-4.7.31-5.009 1.883-7.112 1.637z"/>
        <path fill="#282528" d="M50.077 50.371c.303.079.657.138.819.4.105.17.098.38.088.579a.476.476 0 0 1 .5-.331.469.469 0 0 1 .406.437c.002.1-.031.198-.068.292-.09.234-.207.459-.346.669.38.142.7 1.27.89 1.622.64-.163 2.063-.72 2.187-3.02.058-1.07-.264-2.351-1.41-3.065-.808-.503-2.15-.51-3.076-.27-.75.194-1.949.955-1.39 1.844.282.449.898.713 1.4.843"/>
        <path fill="#282528" d="M53.803 48.994c.432-.144.98-.068 1.24.294.203.283.185.653.25.99.032.163.09.33.215.441.15.134.369.166.574.177.5.027 1.006-.036 1.499.047.493.084.997.363 1.137.825.078.255.036.537.129.787.14.376.54.59.887.808a5.79 5.79 0 0 1 1.824 1.82c.289.461.51.974.546 1.51.035.537.42 1.246.318 1.775-.11.57-.67 1.34-1.775 1.697-1.91.616-2.515.883-4.344-.207-.221-.131-.652-.578-.851-.738a.973.973 0 0 1-.311-.496c-.152-.526.024-1.094.298-1.572.274-.479.644-.903.923-1.378.167-.287.304-.605.289-.933a.504.504 0 0 0-.126-.339.569.569 0 0 0-.296-.133c-.402-.08-.844.004-1.208-.177-.354-.176-.548-.605-.44-.973.071-.247.257-.454.31-.705.077-.36-.149-.731-.462-.943-.313-.21-.7-.292-1.077-.355-.186-.03-.38-.06-.532-.17-.186-.134-.272-.368-.27-.592.009-.708.584-1.237 1.253-1.46"/>
        <path fill="#282528" d="M53.367 50.908c2.293.513-.601 2.759.611 3.833.345.307.748.21 1.153.268 1.557.223.706 1.315.6 2.172-.016.129.191.156.219.03.132-.591.658-1.314.387-1.944-.24-.554-.83-.49-1.315-.504-.608-.02-1.279 0-1.051-1.25.05-.278.266-.56.37-.822.12-.301.201-.6.135-.93-.11-.558-.56-.886-1.076-.975-.076-.013-.11.104-.033.122M48.757 47.865c1.762-.852 3.519-.682 5.007.568.101.085.238-.045.148-.141-1.306-1.4-3.628-1.647-5.203-.505a.046.046 0 0 0 .048.078"/>
        <path fill="#F1B29C" d="M108.513 53.574l-.8 1.552 1.954.772.209-1.788-1.363-.536"/>
        <path fill="#F1B29C" d="M109.628 48.77c-4.191 1.862-2.474 6.376.077 5.845 1.242-.257 1.87-4.339 1.87-4.339l-1.947-1.506"/>
        <path fill="#282528" d="M110.896 47.796c-.137-.259-.266-.534-.49-.718-.225-.184-.58-.242-.792-.042-.278.264-.115.759.167 1.018-.243.03-.532-.14-.71.03-.137.129-.09.357-.011.529.182.404.481.752.849.992-.21.122-.454.357-.328.567.035.058.094.098.128.157.08.136.003.31-.078.445-.131.22-.272.434-.423.64.143-.2.49-.117.594.105.105.222.014.497-.147.68a.658.658 0 0 1-.335.218c-.114.027-.616 1.608-.224 1.918.484.383 2.131.05 2.37-.382.238.264.587.463.932.393.345-.07.608-.503.422-.807a.985.985 0 0 0 1.08-.294 1.03 1.03 0 0 0 .09-1.136c.203-.062.244-.342.192-.552a1.266 1.266 0 0 0-.858-.898c.21.004.377-.211.387-.425.01-.213-.1-.415-.232-.58-.39-.49-.85-.62-1.425-.694-.58-.075-.901-.678-1.158-1.164"/>
        <path fill="#121C2C" d="M106.927 93.554s-2.44 1.112-2.768 1.459c0 0 4.802.205 5.178-.01.375-.215-.77-1.452-.77-1.452l-1.64.003M116.219 92.332s-2.227 1.586-2.48 1.994c0 0 5.253-.722 5.253-1.04 0-.317-1.11-1.284-1.11-1.284l-1.663.33"/>
        <path fill="#282528" d="M109.29 70.647c-.091.504-3.502 13.927 6.257 21.975l2.827-.647s-3.29-3.076-4.84-8.612c-1.467-5.234-.302-5.748.577-8.63.974-3.192.25-5.51.25-5.51l-5.07 1.424"/>
        <path fill="#282528" d="M104.59 70.455c-1.55 3.724-4.212 16.416 1.59 23.561l2.896-.006s-2.282-2.513-2.537-8.345c-.255-5.832 1.22-8.392 2.26-10.317 1.04-1.924 2.004-5.194 2.004-5.194l-6.213.301"/>
        <path fill="#4086D7" d="M102.614 47.376c-.768 2.718-1.021 7.739 2.83 9.762l2.578-.63s-4.647-2.443-3.652-8.617l-1.756-.515"/>
        <path fill="#4A90E2" d="M95.386 46.073l1.983-.247s-.239 8.409 9.379 9.117c7.34.54 7.918 14.45 7.918 14.45-2.367 1.61-6.34 2.097-11.43 1.729 0 0 .326-9.925-.482-12.641 0 0-7.99-2.538-7.368-12.408"/>
        <path fill="#F1B29C" d="M93.085 44.556c-.343.367 1.092.832 2.484 1.425l1.782-.202s.021-.328-.001-.67c-.023-.341-.209-.536-.42-.243-.211.293-1.112.393-1.537.125-.425-.268-1.964-.802-2.308-.435M102.496 47.513c-.653-.595-.48-.558-.48-.558l1.991.416s.438-.899.809-.924c.37-.026-.28.62-.131.858.15.239-.408.69-.408.69l-1.781-.482"/>
        <path fill="#282528" d="M111.954 48.813c.42.105.851.147 1.2.43.345.28.501.76.252 1.151-.117.184.16.327.287.165.32-.41.233-.973-.089-1.36-.37-.447-1.059-.633-1.625-.573-.1.011-.138.158-.025.187M113.902 52.71c.248.174.458.456.352.822-.098.338-.388.54-.62.734-.112.093-.016.298.108.22.345-.216.71-.521.764-1.019.047-.436-.199-.767-.503-.962-.113-.073-.213.127-.101.205M109.293 54.503c.886.486 2.138.407 2.87-.276.09-.085-.033-.244-.147-.169-.801.524-1.71.693-2.65.335-.083-.031-.153.066-.073.11M114.086 49.618c.505.546 0 1.294-.325 1.762-.071.103.042.242.13.148.29-.306.577-.644.616-1.115.03-.354-.098-.691-.375-.863-.037-.022-.078.033-.046.068"/>
    </g>
</svg>
