<?xml version="1.0" standalone="no"?>
<!DOCTYPE svg PUBLIC "-//W3C//DTD SVG 20010904//EN"
 "http://www.w3.org/TR/2001/REC-SVG-20010904/DTD/svg10.dtd">
<svg version="1.0" xmlns="http://www.w3.org/2000/svg"
 width="195.000000pt" height="65.000000pt" viewBox="0 0 195.000000 65.000000"
 preserveAspectRatio="xMidYMid meet">

<g transform="translate(0.000000,65.000000) scale(0.100000,-0.100000)"
fill="#000000" stroke="none">
<path d="M478 604 c-25 -13 -39 -45 -20 -44 18 1 56 29 58 44 3 19 -3 20 -38
0z"/>
<path d="M473 548 c-13 -6 -23 -19 -23 -29 0 -16 3 -17 33 -4 17 7 33 20 35
29 4 18 -13 20 -45 4z"/>
<path d="M1303 493 c-31 -16 -33 -20 -33 -67 l0 -51 -51 3 c-93 7 -151 -38
-163 -127 -8 -60 -33 -91 -75 -91 -48 0 -76 31 -76 83 0 58 25 87 74 87 20 0
42 -4 50 -9 10 -7 19 -4 28 7 18 25 16 29 -18 41 -102 35 -209 -26 -209 -119
0 -95 89 -155 195 -130 52 12 91 55 100 111 3 24 11 54 17 66 15 30 67 47 102
34 25 -10 26 -14 26 -81 0 -68 -1 -71 -27 -81 -20 -8 -39 -7 -66 1 -34 10 -40
9 -52 -7 -17 -23 -13 -29 30 -43 24 -8 45 -8 72 -1 25 7 39 7 41 1 2 -6 19
-10 38 -10 l34 0 0 200 c0 110 -1 200 -2 199 -2 0 -18 -8 -35 -16z"/>
<path d="M1393 492 l-33 -16 0 -158 c0 -91 4 -168 10 -179 11 -20 54 -26 80
-9 12 8 12 11 -3 27 -14 16 -17 46 -19 185 l-3 165 -32 -15z"/>
<path d="M473 490 c-20 -8 -23 -17 -23 -64 l0 -56 -44 6 c-56 8 -109 -10 -141
-47 -89 -107 9 -248 146 -209 22 7 35 7 37 0 5 -13 59 -13 67 1 4 5 -1 26 -10
46 -22 45 -22 120 -1 161 10 20 16 56 16 102 0 74 -3 78 -47 60z m-35 -242 c3
-70 1 -77 -18 -83 -34 -11 -88 4 -105 28 -23 33 -19 84 10 113 20 20 33 25 68
22 l42 -3 3 -77z"/>
<path d="M594 366 c-47 -21 -74 -61 -74 -113 0 -89 49 -134 145 -134 96 0 145
45 145 134 0 99 -113 158 -216 113z m130 -58 c41 -58 2 -148 -63 -148 -62 0
-97 104 -51 150 29 29 94 27 114 -2z"/>
<path d="M1518 358 c-78 -45 -91 -162 -24 -217 27 -23 88 -31 144 -20 57 11
57 11 42 40 -9 15 -15 17 -30 9 -26 -14 -82 -12 -103 4 -9 7 -22 27 -28 44 -9
26 -7 39 8 69 16 33 23 38 56 41 26 2 45 -2 58 -14 35 -31 24 -43 -43 -46 -48
-2 -63 -7 -63 -18 0 -12 18 -16 93 -18 l92 -3 0 38 c0 48 -22 81 -66 99 -47
20 -93 17 -136 -8z"/>
</g>
</svg>
