<svg width="80" height="80" fill="none" xmlns="http://www.w3.org/2000/svg">
  <g clip-path="url(#prefix__prefix__clip0_437_530)">
    <path fill="#fff" d="M0 0h80v80H0z" />
    <path d="M80 34.783H45.218V0H34.783v34.782H0v10.435h34.782V80h10.435V45.218H80V34.783z" fill="#D80027" />
    <path d="M0 8v21.566h22.186L0 8zm29.565-8H7l22.565 22.187V0z" fill="#0052B4" />
    <path d="M29.565 29.566L-.649-.069A40.1 40.1 0 00-3 2.5l27.646 27.065h4.919z" fill="#D80027" />
    <path d="M0 8v21.566h22.186L0 8zm29.565-8H7l22.565 22.187V0z" fill="#0052B4" />
    <path d="M29.565 29.566L-.649-.069A40.1 40.1 0 00-3 2.5l27.646 27.065h4.919z" fill="#D80027" />
    <path d="M80 8.068v21.565H57.811L80 8.068zm-29.566-8H73L50.433 22.255V.068z" fill="#0052B4" />
    <path d="M50.434 29.633L80.648 0C81.47.82 82.252 1.679 83 2.568L55.352 29.633h-4.919z" fill="#D80027" />
    <path d="M0 72.133V50.568h22.186L0 72.133zm29.565 8H7l22.565-22.186v22.186z" fill="#0052B4" />
    <path d="M29.565 50.568L-.649 80.2A40.113 40.113 0 01-3 77.633l27.646-27.065h4.919z" fill="#D80027" />
    <path d="M80 72.065V50.5H57.811L80 72.065zm-29.566 8H73L50.433 57.88v22.186z" fill="#0052B4" />
    <path d="M50.434 50.5l30.214 29.633A40.1 40.1 0 0083 77.565L55.352 50.5h-4.919z" fill="#D80027" />
  </g>
  <defs>
    <clipPath id="prefix__prefix__clip0_437_530">
      <path fill="#fff" d="M0 0h80v80H0z" />
    </clipPath>
  </defs>
</svg>