<svg width="86" height="6" viewBox="0 0 86 6" fill="none" preserveAspectRatio="none" xmlns="http://www.w3.org/2000/svg">
<path d="M84.4051 0C83.808 0 83.4098 0.5 83.4098 1.25C83.3103 1.625 81.8173 3.625 66.4895 3.5C56.6358 3.375 43.9953 2.5 32.8478 1.625C10.8513 3.8743e-06 2.3911 -0.499997 0.898127 1.375C0.599532 1.75 0.5 2.125 0.5 2.5C0.5 3.25 0.898126 3.75 1.49532 3.75C1.89344 3.75 2.19204 3.5 2.3911 3.125C4.5808 2 19.6101 3.125 32.8478 4.125C47.2799 5.25 59.6218 6 68.6792 6C77.3384 6 83.1112 5.25 84.8033 3.25C85.4005 2.625 85.5 1.875 85.5 1.375C85.4005 0.625002 85.0023 0 84.4051 0Z" fill="#E31E30"/>
</svg>